<svg width="288" height="498" viewBox="0 0 288 498" fill="none" xmlns="http://www.w3.org/2000/svg">
<mask id="mask0_177_2534" style="mask-type:alpha" maskUnits="userSpaceOnUse" x="0" y="0" width="288" height="498">
<path d="M0 78.411C0 35.1058 35.1058 0 78.411 0C121.716 0 156.822 35.1058 156.822 78.411V419.589C156.822 462.894 121.716 498 78.411 498C35.1058 498 0 462.894 0 419.589V78.411Z" fill="#1B1F21"/>
<path d="M131.178 78.411C131.178 35.1058 166.284 0 209.589 0C252.894 0 288 35.1058 288 78.411V419.589C288 462.894 252.894 498 209.589 498C166.284 498 131.178 462.894 131.178 419.589V78.411Z" fill="#1B1F21"/>
</mask>
<g mask="url(#mask0_177_2534)">
<rect width="288" height="516" fill="#1B1F21"/>
</g>
</svg>
