<svg width="704" height="498" viewBox="0 0 704 498" fill="none" xmlns="http://www.w3.org/2000/svg">
<g clip-path="url(#clip0_177_2521)">
<path d="M0 0H493C528.346 0 557 28.6538 557 64V434C557 469.346 528.346 498 493 498H0V0Z" fill="#57ACBC"/>
<mask id="mask0_177_2521" style="mask-type:alpha" maskUnits="userSpaceOnUse" x="416" y="0" width="288" height="498">
<path d="M416 78.411C416 35.1058 451.106 0 494.411 0C537.716 0 572.822 35.1058 572.822 78.411V419.589C572.822 462.894 537.716 498 494.411 498C451.106 498 416 462.894 416 419.589V78.411Z" fill="#1B1F21"/>
<path d="M547.178 78.411C547.178 35.1058 582.284 0 625.589 0C668.894 0 704 35.1058 704 78.411V419.589C704 462.894 668.894 498 625.589 498C582.284 498 547.178 462.894 547.178 419.589V78.411Z" fill="#1B1F21"/>
</mask>
<g mask="url(#mask0_177_2521)">
<rect x="416" width="288" height="516" fill="#1B1F21"/>
</g>
</g>
<defs>
<clipPath id="clip0_177_2521">
<path d="M0 32C0 14.3269 14.3269 0 32 0H704V498H32C14.3269 498 0 483.673 0 466V32Z" fill="white"/>
</clipPath>
</defs>
</svg>
