<svg width="584" height="328" viewBox="0 0 584 328" fill="none" xmlns="http://www.w3.org/2000/svg">
<path d="M584 102.873C584 46.0577 536.838 0 479.283 0C445.136 0 414.647 16.2119 395.496 41.2639C368.689 15.716 332.204 0 292 0C251.849 0 215.406 15.6747 188.61 41.1633C169.598 16.1685 139.322 0 105.221 0H6.10352e-05V225.127C6.10352e-05 281.942 47.1616 328 104.717 328C138.864 328 169.353 311.788 188.505 286.736C215.311 312.284 251.796 328 292 328C332.151 328 368.594 312.325 395.39 286.837C414.402 311.831 444.678 328 478.779 328H584V102.873Z" fill="#DFDBDB"/>
</svg>
