<svg width="340" height="224" viewBox="0 0 340 224" fill="none" xmlns="http://www.w3.org/2000/svg">
<path d="M0 153.745C0 192.546 27.4571 224 60.9655 224C80.8457 224 98.5959 212.928 109.746 195.82C125.352 213.267 146.594 224 170 224C193.376 224 214.592 213.295 230.193 195.888C241.261 212.958 258.888 224 278.741 224H340V70.2545C340 31.454 312.543 0 279.034 0C259.154 0 241.404 11.0715 230.254 28.1802C214.648 10.7329 193.406 0 170 0C146.624 0 125.408 10.7047 109.807 28.1115C98.7385 11.0419 81.1122 0 61.2586 0H0V153.745Z" fill="black"/>
</svg>
