<svg width="631" height="55" viewBox="0 0 631 55" fill="none" xmlns="http://www.w3.org/2000/svg">
<path d="M30.6687 42.7627L28.9867 37.1367H15.0087L13.3267 42.7627H0.218672L14.7767 2.85869H29.6827L44.2407 42.7627H30.6687ZM17.6767 28.2047H26.3187L22.1427 13.9947H21.9107L17.6767 28.2047ZM67.4593 11.3847C68.3486 11.3847 69.1413 11.5007 69.8373 11.7327C70.5333 11.926 70.8813 12.042 70.8813 12.0807V21.7667H67.1693C64.7719 21.7667 63.0319 22.3854 61.9493 23.6227C60.9053 24.86 60.3833 26.6967 60.3833 29.1327V42.7627H48.8413V12.1387H58.2953L59.0493 16.7787C59.7453 15 60.8473 13.666 62.3553 12.7767C63.8633 11.8487 65.5646 11.3847 67.4593 11.3847ZM98.4974 12.1387V19.9687H92.0014V31.6267C92.0014 33.0187 92.2334 34.0434 92.6974 34.7007C93.1614 35.3194 94.0121 35.6287 95.2494 35.6287H98.4974V42.4147C97.5694 42.724 96.3707 42.9754 94.9014 43.1687C93.4321 43.362 92.1561 43.4587 91.0734 43.4587C87.6707 43.4587 85.0414 42.84 83.1854 41.6027C81.3681 40.3654 80.4594 38.258 80.4594 35.2807V19.9687H76.1674V12.1387H80.9234L83.4174 2.85869H92.0014V12.1387H98.4974ZM105.013 8.42669L110.407 0.712694H121.543L121.659 0.944694L112.437 8.42669H105.013ZM104.839 12.1387H116.381V42.7627H104.839V12.1387ZM140.161 11.4427C145.188 11.4427 149.248 12.5254 152.341 14.6907C155.473 16.8174 157.039 20.0847 157.039 24.4927H145.845C145.845 21.0127 143.951 19.2727 140.161 19.2727C136.372 19.2727 134.477 21.4574 134.477 25.8267V29.1327C134.477 33.4634 136.449 35.6287 140.393 35.6287C144.337 35.6287 146.309 33.85 146.309 30.2927H157.039C157.039 34.7394 155.473 38.0454 152.341 40.2107C149.248 42.376 145.188 43.4587 140.161 43.4587C134.787 43.4587 130.572 42.1054 127.517 39.3987C124.463 36.692 122.935 32.7094 122.935 27.4507C122.935 22.192 124.463 18.2094 127.517 15.5027C130.572 12.796 134.787 11.4427 140.161 11.4427ZM185.807 42.7627L185.053 38.1227C183.854 39.7854 182.269 41.1 180.297 42.0667C178.364 42.9947 176.314 43.4587 174.149 43.4587C170.592 43.4587 167.924 42.4727 166.145 40.5007C164.366 38.5287 163.477 35.6867 163.477 31.9747V12.1387H175.019V30.5827C175.019 31.8974 175.348 32.9607 176.005 33.7727C176.701 34.546 177.668 34.9327 178.905 34.9327C180.336 34.9327 181.496 34.4687 182.385 33.5407C183.274 32.6127 183.719 31.472 183.719 30.1187V12.1387H195.261V42.7627H185.807ZM203.264 42.7627V0.712694H214.806V42.7627H203.264ZM238.587 11.4427C243.962 11.4427 248.176 12.8154 251.231 15.5607C254.324 18.2674 255.871 22.2307 255.871 27.4507C255.871 32.6707 254.324 36.6534 251.231 39.3987C248.176 42.1054 243.962 43.4587 238.587 43.4587C233.212 43.4587 228.998 42.1054 225.943 39.3987C222.888 36.692 221.361 32.7094 221.361 27.4507C221.361 22.192 222.888 18.2094 225.943 15.5027C228.998 12.796 233.212 11.4427 238.587 11.4427ZM238.587 19.2727C234.798 19.2727 232.903 21.4574 232.903 25.8267V29.1327C232.903 33.4634 234.798 35.6287 238.587 35.6287C242.415 35.6287 244.329 33.4634 244.329 29.1327V25.8267C244.329 21.4574 242.415 19.2727 238.587 19.2727ZM276.576 11.4427C280.675 11.4427 284.136 12.2547 286.958 13.8787C289.82 15.464 291.25 17.9387 291.25 21.3027H280.52C280.52 20.1814 280.018 19.3887 279.012 18.9247C278.316 18.538 277.446 18.3447 276.402 18.3447C273.618 18.3447 272.226 19.002 272.226 20.3167C272.226 21.0514 272.71 21.5734 273.676 21.8827C274.643 22.192 276.228 22.5207 278.432 22.8687C281.139 23.2554 283.401 23.7194 285.218 24.2607C287.036 24.7634 288.621 25.6914 289.974 27.0447C291.328 28.3594 292.004 30.2154 292.004 32.6127C292.004 36.518 290.535 39.302 287.596 40.9647C284.696 42.6274 280.888 43.4587 276.17 43.4587C273.464 43.4587 270.912 43.0914 268.514 42.3567C266.117 41.5834 264.164 40.404 262.656 38.8187C261.148 37.2334 260.394 35.2227 260.394 32.7867H271.124V33.0187C271.163 34.3334 271.704 35.2614 272.748 35.8027C273.831 36.3054 274.972 36.5567 276.17 36.5567C279.38 36.5567 280.984 35.8027 280.984 34.2947C280.984 33.5214 280.482 32.9607 279.476 32.6127C278.471 32.2647 276.828 31.8974 274.546 31.5107C271.801 31.0467 269.539 30.544 267.76 30.0027C266.02 29.4614 264.493 28.5527 263.178 27.2767C261.864 25.962 261.206 24.1447 261.206 21.8247C261.206 18.074 262.618 15.406 265.44 13.8207C268.302 12.2354 272.014 11.4427 276.576 11.4427ZM338.134 11.4427C342.271 11.4427 345.461 12.796 347.704 15.5027C349.947 18.2094 351.068 22.2114 351.068 27.5087C351.068 32.7674 349.947 36.75 347.704 39.4567C345.461 42.1247 342.271 43.4587 338.134 43.4587C334.577 43.4587 331.715 42.2987 329.55 39.9787V54.1887H318.008V12.1387H327.404L328.39 16.4887C330.633 13.1247 333.881 11.4427 338.134 11.4427ZM334.538 19.9687C332.837 19.9687 331.561 20.568 330.71 21.7667C329.859 22.9654 329.434 24.5314 329.434 26.4647V28.3787C329.434 30.312 329.859 31.8974 330.71 33.1347C331.561 34.3334 332.837 34.9327 334.538 34.9327C337.863 34.9327 339.526 32.9414 339.526 28.9587V25.8847C339.526 21.9407 337.863 19.9687 334.538 19.9687ZM373.049 11.4427C378.424 11.4427 382.639 12.8154 385.693 15.5607C388.787 18.2674 390.333 22.2307 390.333 27.4507C390.333 32.6707 388.787 36.6534 385.693 39.3987C382.639 42.1054 378.424 43.4587 373.049 43.4587C367.675 43.4587 363.46 42.1054 360.405 39.3987C357.351 36.692 355.823 32.7094 355.823 27.4507C355.823 22.192 357.351 18.2094 360.405 15.5027C363.46 12.796 367.675 11.4427 373.049 11.4427ZM373.049 19.2727C369.26 19.2727 367.365 21.4574 367.365 25.8267V29.1327C367.365 33.4634 369.26 35.6287 373.049 35.6287C376.877 35.6287 378.791 33.4634 378.791 29.1327V25.8267C378.791 21.4574 376.877 19.2727 373.049 19.2727ZM416.665 11.4427C420.802 11.4427 423.992 12.796 426.235 15.5027C428.478 18.2094 429.599 22.2114 429.599 27.5087C429.599 32.7674 428.478 36.75 426.235 39.4567C423.992 42.1247 420.802 43.4587 416.665 43.4587C413.108 43.4587 410.246 42.2987 408.081 39.9787V54.1887H396.539V12.1387H405.935L406.921 16.4887C409.164 13.1247 412.412 11.4427 416.665 11.4427ZM413.069 19.9687C411.368 19.9687 410.092 20.568 409.241 21.7667C408.39 22.9654 407.965 24.5314 407.965 26.4647V28.3787C407.965 30.312 408.39 31.8974 409.241 33.1347C410.092 34.3334 411.368 34.9327 413.069 34.9327C416.394 34.9327 418.057 32.9414 418.057 28.9587V25.8847C418.057 21.9407 416.394 19.9687 413.069 19.9687ZM457.961 42.7627L457.207 38.1227C456.008 39.7854 454.423 41.1 452.451 42.0667C450.517 42.9947 448.468 43.4587 446.303 43.4587C442.745 43.4587 440.077 42.4727 438.299 40.5007C436.52 38.5287 435.631 35.6867 435.631 31.9747V12.1387H447.173V30.5827C447.173 31.8974 447.501 32.9607 448.159 33.7727C448.855 34.546 449.821 34.9327 451.059 34.9327C452.489 34.9327 453.649 34.4687 454.539 33.5407C455.428 32.6127 455.873 31.472 455.873 30.1187V12.1387H467.415V42.7627H457.961ZM475.418 42.7627V0.712694H486.96V42.7627H475.418ZM510.045 11.4427C514.723 11.4427 518.532 12.2354 521.471 13.8207C524.409 15.3674 525.879 17.9 525.879 21.4187V33.3667C525.879 34.024 526.033 34.5654 526.343 34.9907C526.652 35.416 527.116 35.6287 527.735 35.6287H529.823V42.2987C529.707 42.376 529.397 42.5114 528.895 42.7047C528.431 42.8594 527.754 43.014 526.865 43.1687C525.975 43.362 524.951 43.4587 523.791 43.4587C521.548 43.4587 519.692 43.13 518.223 42.4727C516.792 41.7767 515.806 40.8294 515.265 39.6307C513.795 40.7907 512.152 41.7187 510.335 42.4147C508.517 43.1107 506.391 43.4587 503.955 43.4587C496.763 43.4587 493.167 40.5974 493.167 34.8747C493.167 31.8974 493.959 29.6354 495.545 28.0887C497.169 26.5034 499.489 25.4207 502.505 24.8407C505.521 24.2607 509.465 23.9707 514.337 23.9707V22.4627C514.337 21.264 513.911 20.3554 513.061 19.7367C512.249 19.118 511.185 18.8087 509.871 18.8087C508.672 18.8087 507.628 19.0214 506.739 19.4467C505.888 19.872 505.463 20.5487 505.463 21.4767V21.7087H494.095C494.056 21.5154 494.037 21.2447 494.037 20.8967C494.037 17.9967 495.409 15.696 498.155 13.9947C500.939 12.2934 504.902 11.4427 510.045 11.4427ZM514.337 29.4227C511.05 29.4227 508.614 29.79 507.029 30.5247C505.482 31.2207 504.709 32.168 504.709 33.3667C504.709 35.3 506.023 36.2667 508.653 36.2667C510.161 36.2667 511.475 35.8607 512.597 35.0487C513.757 34.2367 514.337 33.2314 514.337 32.0327V29.4227ZM552.79 11.3847C553.679 11.3847 554.472 11.5007 555.168 11.7327C555.864 11.926 556.212 12.042 556.212 12.0807V21.7667H552.5C550.103 21.7667 548.363 22.3854 547.28 23.6227C546.236 24.86 545.714 26.6967 545.714 29.1327V42.7627H534.172V12.1387H543.626L544.38 16.7787C545.076 15 546.178 13.666 547.686 12.7767C549.194 11.8487 550.895 11.3847 552.79 11.3847ZM577.264 11.4427C582.87 11.4427 587.143 12.7574 590.082 15.3867C593.059 18.016 594.548 22.0374 594.548 27.4507V29.4227H571.58C571.58 31.6267 572.063 33.2894 573.03 34.4107C574.035 35.532 575.601 36.0927 577.728 36.0927C579.661 36.0927 581.072 35.6867 581.962 34.8747C582.89 34.0627 583.354 32.98 583.354 31.6267H594.548C594.548 35.3387 593.136 38.2387 590.314 40.3267C587.491 42.4147 583.373 43.4587 577.96 43.4587C572.276 43.4587 567.868 42.144 564.736 39.5147C561.604 36.8467 560.038 32.8254 560.038 27.4507C560.038 22.192 561.565 18.2094 564.62 15.5027C567.674 12.796 571.889 11.4427 577.264 11.4427ZM577.728 18.8087C574.093 18.8087 572.063 20.5294 571.638 23.9707H582.89C582.89 22.3854 582.426 21.1287 581.498 20.2007C580.608 19.2727 579.352 18.8087 577.728 18.8087ZM615.253 11.4427C619.352 11.4427 622.813 12.2547 625.635 13.8787C628.497 15.464 629.927 17.9387 629.927 21.3027H619.197C619.197 20.1814 618.695 19.3887 617.689 18.9247C616.993 18.538 616.123 18.3447 615.079 18.3447C612.295 18.3447 610.903 19.002 610.903 20.3167C610.903 21.0514 611.387 21.5734 612.353 21.8827C613.32 22.192 614.905 22.5207 617.109 22.8687C619.816 23.2554 622.078 23.7194 623.895 24.2607C625.713 24.7634 627.298 25.6914 628.651 27.0447C630.005 28.3594 630.681 30.2154 630.681 32.6127C630.681 36.518 629.212 39.302 626.273 40.9647C623.373 42.6274 619.565 43.4587 614.847 43.4587C612.141 43.4587 609.589 43.0914 607.191 42.3567C604.794 41.5834 602.841 40.404 601.333 38.8187C599.825 37.2334 599.071 35.2227 599.071 32.7867H609.801V33.0187C609.84 34.3334 610.381 35.2614 611.425 35.8027C612.508 36.3054 613.649 36.5567 614.847 36.5567C618.057 36.5567 619.661 35.8027 619.661 34.2947C619.661 33.5214 619.159 32.9607 618.153 32.6127C617.148 32.2647 615.505 31.8974 613.223 31.5107C610.478 31.0467 608.216 30.544 606.437 30.0027C604.697 29.4614 603.17 28.5527 601.855 27.2767C600.541 25.962 599.883 24.1447 599.883 21.8247C599.883 18.074 601.295 15.406 604.117 13.8207C606.979 12.2354 610.691 11.4427 615.253 11.4427Z" fill="#1B1F21"/>
</svg>
