<svg width="896" height="53" viewBox="0 0 896 53" fill="none" xmlns="http://www.w3.org/2000/svg">
<path d="M17.576 1.096C31.5347 1.096 38.514 7.74667 38.514 21.048C38.514 34.3493 31.5347 41 17.576 41H0.292L0.292 1.096H17.576ZM13.11 31.43H17.344C22.7187 31.43 25.406 28.5493 25.406 22.788V19.308C25.406 13.5467 22.7187 10.666 17.344 10.666H13.11V31.43ZM61.0366 9.68C66.6432 9.68 70.9159 10.9947 73.8546 13.624C76.8319 16.2533 78.3206 20.2747 78.3206 25.688V27.66H55.3526C55.3526 29.864 55.8359 31.5267 56.8026 32.648C57.8079 33.7693 59.3739 34.33 61.5006 34.33C63.4339 34.33 64.8452 33.924 65.7346 33.112C66.6626 32.3 67.1266 31.2173 67.1266 29.864H78.3206C78.3206 33.576 76.9092 36.476 74.0866 38.564C71.2639 40.652 67.1459 41.696 61.7326 41.696C56.0486 41.696 51.6406 40.3813 48.5086 37.752C45.3766 35.084 43.8106 31.0627 43.8106 25.688C43.8106 20.4293 45.3379 16.4467 48.3926 13.74C51.4472 11.0333 55.6619 9.68 61.0366 9.68ZM61.5006 17.046C57.8659 17.046 55.8359 18.7667 55.4106 22.208H66.6626C66.6626 20.6227 66.1986 19.366 65.2706 18.438C64.3812 17.51 63.1246 17.046 61.5006 17.046ZM99.0261 9.68C103.125 9.68 106.585 10.492 109.408 12.116C112.269 13.7013 113.7 16.176 113.7 19.54H102.97C102.97 18.4187 102.467 17.626 101.462 17.162C100.766 16.7753 99.8961 16.582 98.8521 16.582C96.0681 16.582 94.6761 17.2393 94.6761 18.554C94.6761 19.2887 95.1595 19.8107 96.1261 20.12C97.0928 20.4293 98.6781 20.758 100.882 21.106C103.589 21.4927 105.851 21.9567 107.668 22.498C109.485 23.0007 111.071 23.9287 112.424 25.282C113.777 26.5967 114.454 28.4527 114.454 30.85C114.454 34.7553 112.985 37.5393 110.046 39.202C107.146 40.8647 103.337 41.696 98.6201 41.696C95.9135 41.696 93.3615 41.3287 90.9641 40.594C88.5668 39.8207 86.6141 38.6413 85.1061 37.056C83.5981 35.4707 82.8441 33.46 82.8441 31.024H93.5741V31.256C93.6128 32.5707 94.1541 33.4987 95.1981 34.04C96.2808 34.5427 97.4215 34.794 98.6201 34.794C101.829 34.794 103.434 34.04 103.434 32.532C103.434 31.7587 102.931 31.198 101.926 30.85C100.921 30.502 99.2775 30.1347 96.9961 29.748C94.2508 29.284 91.9888 28.7813 90.2101 28.24C88.4701 27.6987 86.9428 26.79 85.6281 25.514C84.3135 24.1993 83.6561 22.382 83.6561 20.062C83.6561 16.3113 85.0675 13.6433 87.8901 12.058C90.7515 10.4727 94.4635 9.68 99.0261 9.68ZM136.339 9.68C141.366 9.68 145.426 10.7627 148.519 12.928C151.651 15.0547 153.217 18.322 153.217 22.73H142.023C142.023 19.25 140.128 17.51 136.339 17.51C132.55 17.51 130.655 19.6947 130.655 24.064V27.37C130.655 31.7007 132.627 33.866 136.571 33.866C140.515 33.866 142.487 32.0873 142.487 28.53H153.217C153.217 32.9767 151.651 36.2827 148.519 38.448C145.426 40.6133 141.366 41.696 136.339 41.696C130.964 41.696 126.75 40.3427 123.695 37.636C120.64 34.9293 119.113 30.9467 119.113 25.688C119.113 20.4293 120.64 16.4467 123.695 13.74C126.75 11.0333 130.964 9.68 136.339 9.68ZM181.985 41L181.231 36.36C180.032 38.0227 178.447 39.3373 176.475 40.304C174.541 41.232 172.492 41.696 170.327 41.696C166.769 41.696 164.101 40.71 162.323 38.738C160.544 36.766 159.655 33.924 159.655 30.212V10.376H171.197V28.82C171.197 30.1347 171.525 31.198 172.183 32.01C172.879 32.7833 173.845 33.17 175.083 33.17C176.513 33.17 177.673 32.706 178.563 31.778C179.452 30.85 179.897 29.7093 179.897 28.356V10.376H191.439V41H181.985ZM214.87 9.68C220.477 9.68 224.75 10.9947 227.688 13.624C230.666 16.2533 232.154 20.2747 232.154 25.688V27.66H209.186C209.186 29.864 209.67 31.5267 210.636 32.648C211.642 33.7693 213.208 34.33 215.334 34.33C217.268 34.33 218.679 33.924 219.568 33.112C220.496 32.3 220.96 31.2173 220.96 29.864H232.154C232.154 33.576 230.743 36.476 227.92 38.564C225.098 40.652 220.98 41.696 215.566 41.696C209.882 41.696 205.474 40.3813 202.342 37.752C199.21 35.084 197.644 31.0627 197.644 25.688C197.644 20.4293 199.172 16.4467 202.226 13.74C205.281 11.0333 209.496 9.68 214.87 9.68ZM215.334 17.046C211.7 17.046 209.67 18.7667 209.244 22.208H220.496C220.496 20.6227 220.032 19.366 219.104 18.438C218.215 17.51 216.958 17.046 215.334 17.046ZM259.414 9.68C262.971 9.68 265.639 10.666 267.418 12.638C269.196 14.61 270.086 17.452 270.086 21.164V41H258.544V22.556C258.544 21.2413 258.196 20.1973 257.5 19.424C256.842 18.612 255.895 18.206 254.658 18.206C253.227 18.206 252.067 18.67 251.178 19.598C250.288 20.526 249.844 21.6667 249.844 23.02V41H238.302V10.376H247.756L248.51 15.016C249.708 13.392 251.274 12.0967 253.208 11.13C255.18 10.1633 257.248 9.68 259.414 9.68ZM297.983 10.376V18.206H291.487V29.864C291.487 31.256 291.719 32.2807 292.183 32.938C292.647 33.5567 293.498 33.866 294.735 33.866H297.983V40.652C297.055 40.9613 295.857 41.2127 294.387 41.406C292.918 41.5993 291.642 41.696 290.559 41.696C287.157 41.696 284.527 41.0773 282.671 39.84C280.854 38.6027 279.945 36.4953 279.945 33.518V18.206H275.653V10.376H280.409L282.903 1.096H291.487V10.376H297.983ZM319.753 9.68C325.128 9.68 329.342 11.0527 332.397 13.798C335.49 16.5047 337.037 20.468 337.037 25.688C337.037 30.908 335.49 34.8907 332.397 37.636C329.342 40.3427 325.128 41.696 319.753 41.696C314.378 41.696 310.164 40.3427 307.109 37.636C304.054 34.9293 302.527 30.9467 302.527 25.688C302.527 20.4293 304.054 16.4467 307.109 13.74C310.164 11.0333 314.378 9.68 319.753 9.68ZM319.753 17.51C315.964 17.51 314.069 19.6947 314.069 24.064V27.37C314.069 31.7007 315.964 33.866 319.753 33.866C323.581 33.866 325.495 31.7007 325.495 27.37V24.064C325.495 19.6947 323.581 17.51 319.753 17.51ZM383.263 9.68C387.4 9.68 390.59 11.0333 392.833 13.74C395.075 16.4467 396.197 20.4487 396.197 25.746C396.197 31.0047 395.075 34.9873 392.833 37.694C390.59 40.362 387.4 41.696 383.263 41.696C379.705 41.696 376.844 40.536 374.679 38.216V52.426H363.137V10.376H372.533L373.519 14.726C375.761 11.362 379.009 9.68 383.263 9.68ZM379.667 18.206C377.965 18.206 376.689 18.8053 375.839 20.004C374.988 21.2027 374.563 22.7687 374.563 24.702V26.616C374.563 28.5493 374.988 30.1347 375.839 31.372C376.689 32.5707 377.965 33.17 379.667 33.17C382.992 33.17 384.655 31.1787 384.655 27.196V24.122C384.655 20.178 382.992 18.206 379.667 18.206ZM417.482 9.68C422.161 9.68 425.97 10.4727 428.908 12.058C431.847 13.6047 433.316 16.1373 433.316 19.656V31.604C433.316 32.2613 433.471 32.8027 433.78 33.228C434.09 33.6533 434.554 33.866 435.172 33.866H437.26V40.536C437.144 40.6133 436.835 40.7487 436.332 40.942C435.868 41.0967 435.192 41.2513 434.302 41.406C433.413 41.5993 432.388 41.696 431.228 41.696C428.986 41.696 427.13 41.3673 425.66 40.71C424.23 40.014 423.244 39.0667 422.702 37.868C421.233 39.028 419.59 39.956 417.772 40.652C415.955 41.348 413.828 41.696 411.392 41.696C404.2 41.696 400.604 38.8347 400.604 33.112C400.604 30.1347 401.397 27.8727 402.982 26.326C404.606 24.7407 406.926 23.658 409.942 23.078C412.958 22.498 416.902 22.208 421.774 22.208V20.7C421.774 19.5013 421.349 18.5927 420.498 17.974C419.686 17.3553 418.623 17.046 417.308 17.046C416.11 17.046 415.066 17.2587 414.176 17.684C413.326 18.1093 412.9 18.786 412.9 19.714V19.946H401.532C401.494 19.7527 401.474 19.482 401.474 19.134C401.474 16.234 402.847 13.9333 405.592 12.232C408.376 10.5307 412.34 9.68 417.482 9.68ZM421.774 27.66C418.488 27.66 416.052 28.0273 414.466 28.762C412.92 29.458 412.146 30.4053 412.146 31.604C412.146 33.5373 413.461 34.504 416.09 34.504C417.598 34.504 418.913 34.098 420.034 33.286C421.194 32.474 421.774 31.4687 421.774 30.27V27.66ZM460.228 9.622C461.117 9.622 461.91 9.738 462.606 9.97C463.302 10.1633 463.65 10.2793 463.65 10.318V20.004H459.938C457.541 20.004 455.801 20.6227 454.718 21.86C453.674 23.0973 453.152 24.934 453.152 27.37V41H441.61V10.376H451.064L451.818 15.016C452.514 13.2373 453.616 11.9033 455.124 11.014C456.632 10.086 458.333 9.622 460.228 9.622ZM484.062 9.68C488.741 9.68 492.55 10.4727 495.488 12.058C498.427 13.6047 499.896 16.1373 499.896 19.656V31.604C499.896 32.2613 500.051 32.8027 500.36 33.228C500.67 33.6533 501.134 33.866 501.752 33.866H503.84V40.536C503.724 40.6133 503.415 40.7487 502.912 40.942C502.448 41.0967 501.772 41.2513 500.882 41.406C499.993 41.5993 498.968 41.696 497.808 41.696C495.566 41.696 493.71 41.3673 492.24 40.71C490.81 40.014 489.824 39.0667 489.282 37.868C487.813 39.028 486.17 39.956 484.352 40.652C482.535 41.348 480.408 41.696 477.972 41.696C470.78 41.696 467.184 38.8347 467.184 33.112C467.184 30.1347 467.977 27.8727 469.562 26.326C471.186 24.7407 473.506 23.658 476.522 23.078C479.538 22.498 483.482 22.208 488.354 22.208V20.7C488.354 19.5013 487.929 18.5927 487.078 17.974C486.266 17.3553 485.203 17.046 483.888 17.046C482.69 17.046 481.646 17.2587 480.756 17.684C479.906 18.1093 479.48 18.786 479.48 19.714V19.946H468.112C468.074 19.7527 468.054 19.482 468.054 19.134C468.054 16.234 469.427 13.9333 472.172 12.232C474.956 10.5307 478.92 9.68 484.062 9.68ZM488.354 27.66C485.068 27.66 482.632 28.0273 481.046 28.762C479.5 29.458 478.726 30.4053 478.726 31.604C478.726 33.5373 480.041 34.504 482.67 34.504C484.178 34.504 485.493 34.098 486.614 33.286C487.774 32.474 488.354 31.4687 488.354 30.27V27.66ZM543.918 9.68C548.945 9.68 553.005 10.7627 556.098 12.928C559.23 15.0547 560.796 18.322 560.796 22.73H549.602C549.602 19.25 547.708 17.51 543.918 17.51C540.129 17.51 538.234 19.6947 538.234 24.064V27.37C538.234 31.7007 540.206 33.866 544.15 33.866C548.094 33.866 550.066 32.0873 550.066 28.53H560.796C560.796 32.9767 559.23 36.2827 556.098 38.448C553.005 40.6133 548.945 41.696 543.918 41.696C538.544 41.696 534.329 40.3427 531.274 37.636C528.22 34.9293 526.692 30.9467 526.692 25.688C526.692 20.4293 528.22 16.4467 531.274 13.74C534.329 11.0333 538.544 9.68 543.918 9.68ZM589.564 41L588.81 36.36C587.611 38.0227 586.026 39.3373 584.054 40.304C582.121 41.232 580.071 41.696 577.906 41.696C574.349 41.696 571.681 40.71 569.902 38.738C568.123 36.766 567.234 33.924 567.234 30.212V10.376H578.776V28.82C578.776 30.1347 579.105 31.198 579.762 32.01C580.458 32.7833 581.425 33.17 582.662 33.17C584.093 33.17 585.253 32.706 586.142 31.778C587.031 30.85 587.476 29.7093 587.476 28.356V10.376H599.018V41H589.564ZM625.233 9.622C626.123 9.622 626.915 9.738 627.611 9.97C628.307 10.1633 628.655 10.2793 628.655 10.318V20.004H624.943C622.546 20.004 620.806 20.6227 619.723 21.86C618.679 23.0973 618.157 24.934 618.157 27.37V41H606.615V10.376H616.069L616.823 15.016C617.519 13.2373 618.621 11.9033 620.129 11.014C621.637 10.086 623.339 9.622 625.233 9.622ZM648.998 9.68C653.096 9.68 656.557 10.492 659.38 12.116C662.241 13.7013 663.672 16.176 663.672 19.54H652.942C652.942 18.4187 652.439 17.626 651.434 17.162C650.738 16.7753 649.868 16.582 648.824 16.582C646.04 16.582 644.648 17.2393 644.648 18.554C644.648 19.2887 645.131 19.8107 646.098 20.12C647.064 20.4293 648.65 20.758 650.854 21.106C653.56 21.4927 655.822 21.9567 657.64 22.498C659.457 23.0007 661.042 23.9287 662.396 25.282C663.749 26.5967 664.426 28.4527 664.426 30.85C664.426 34.7553 662.956 37.5393 660.018 39.202C657.118 40.8647 653.309 41.696 648.592 41.696C645.885 41.696 643.333 41.3287 640.936 40.594C638.538 39.8207 636.586 38.6413 635.078 37.056C633.57 35.4707 632.816 33.46 632.816 31.024H643.546V31.256C643.584 32.5707 644.126 33.4987 645.17 34.04C646.252 34.5427 647.393 34.794 648.592 34.794C651.801 34.794 653.406 34.04 653.406 32.532C653.406 31.7587 652.903 31.198 651.898 30.85C650.892 30.502 649.249 30.1347 646.968 29.748C644.222 29.284 641.96 28.7813 640.182 28.24C638.442 27.6987 636.914 26.79 635.6 25.514C634.285 24.1993 633.628 22.382 633.628 20.062C633.628 16.3113 635.039 13.6433 637.862 12.058C640.723 10.4727 644.435 9.68 648.998 9.68ZM686.311 9.68C691.685 9.68 695.9 11.0527 698.955 13.798C702.048 16.5047 703.595 20.468 703.595 25.688C703.595 30.908 702.048 34.8907 698.955 37.636C695.9 40.3427 691.685 41.696 686.311 41.696C680.936 41.696 676.721 40.3427 673.667 37.636C670.612 34.9293 669.085 30.9467 669.085 25.688C669.085 20.4293 670.612 16.4467 673.667 13.74C676.721 11.0333 680.936 9.68 686.311 9.68ZM686.311 17.51C682.521 17.51 680.627 19.6947 680.627 24.064V27.37C680.627 31.7007 682.521 33.866 686.311 33.866C690.139 33.866 692.053 31.7007 692.053 27.37V24.064C692.053 19.6947 690.139 17.51 686.311 17.51ZM724.3 9.68C728.399 9.68 731.859 10.492 734.682 12.116C737.543 13.7013 738.974 16.176 738.974 19.54H728.244C728.244 18.4187 727.741 17.626 726.736 17.162C726.04 16.7753 725.17 16.582 724.126 16.582C721.342 16.582 719.95 17.2393 719.95 18.554C719.95 19.2887 720.433 19.8107 721.4 20.12C722.367 20.4293 723.952 20.758 726.156 21.106C728.863 21.4927 731.125 21.9567 732.942 22.498C734.759 23.0007 736.345 23.9287 737.698 25.282C739.051 26.5967 739.728 28.4527 739.728 30.85C739.728 34.7553 738.259 37.5393 735.32 39.202C732.42 40.8647 728.611 41.696 723.894 41.696C721.187 41.696 718.635 41.3287 716.238 40.594C713.841 39.8207 711.888 38.6413 710.38 37.056C708.872 35.4707 708.118 33.46 708.118 31.024H718.848V31.256C718.887 32.5707 719.428 33.4987 720.472 34.04C721.555 34.5427 722.695 34.794 723.894 34.794C727.103 34.794 728.708 34.04 728.708 32.532C728.708 31.7587 728.205 31.198 727.2 30.85C726.195 30.502 724.551 30.1347 722.27 29.748C719.525 29.284 717.263 28.7813 715.484 28.24C713.744 27.6987 712.217 26.79 710.902 25.514C709.587 24.1993 708.93 22.382 708.93 20.062C708.93 16.3113 710.341 13.6433 713.164 12.058C716.025 10.4727 719.737 9.68 724.3 9.68ZM782.262 0.399997C785.394 0.399997 788.1 0.902664 790.382 1.908C792.702 2.87466 794.48 4.26666 795.718 6.084C796.994 7.90133 797.632 10.0087 797.632 12.406C797.632 14.6487 797.071 16.6787 795.95 18.496C794.828 20.3133 793.417 21.918 791.716 23.31C790.014 24.702 787.675 26.4033 784.698 28.414C783.035 29.4967 781.682 30.4247 780.638 31.198H798.096V41H765.036V38.216C765.036 36.1667 765.5 34.3493 766.428 32.764C767.394 31.14 768.786 29.516 770.604 27.892C772.46 26.268 775.128 24.064 778.608 21.28C781.392 19.076 783.344 17.394 784.466 16.234C785.587 15.074 786.148 13.9333 786.148 12.812C786.148 11.6133 785.722 10.608 784.872 9.796C784.06 8.984 782.822 8.578 781.16 8.578C779.42 8.578 778.047 9.08067 777.042 10.086C776.036 11.0913 775.534 12.406 775.534 14.03V15.19H765.21C765.171 14.8807 765.152 14.4553 765.152 13.914C765.152 9.738 766.602 6.45133 769.502 4.054C772.44 1.618 776.694 0.399997 782.262 0.399997ZM820.831 0.399997C827.057 0.399997 831.426 2.17866 833.939 5.736C836.491 9.25467 837.767 14.3587 837.767 21.048C837.767 27.7373 836.491 32.8607 833.939 36.418C831.426 39.9367 827.057 41.696 820.831 41.696C814.567 41.696 810.159 39.9367 807.607 36.418C805.094 32.8607 803.837 27.7373 803.837 21.048C803.837 14.3587 805.094 9.25467 807.607 5.736C810.159 2.17866 814.567 0.399997 820.831 0.399997ZM820.831 8.23C818.821 8.23 817.39 9.00333 816.539 10.55C815.689 12.0967 815.263 14.6293 815.263 18.148V23.89C815.263 27.4473 815.689 29.9993 816.539 31.546C817.39 33.0927 818.821 33.866 820.831 33.866C822.842 33.866 824.253 33.0927 825.065 31.546C825.877 29.9993 826.283 27.4473 826.283 23.89V18.148C826.283 14.5907 825.877 12.058 825.065 10.55C824.253 9.00333 822.842 8.23 820.831 8.23ZM854.065 0.399997C857.699 0.399997 860.367 1.328 862.069 3.184C863.809 5.00133 864.679 7.55333 864.679 10.84C864.679 14.0493 863.809 16.582 862.069 18.438C860.367 20.2553 857.699 21.164 854.065 21.164C850.43 21.164 847.743 20.2553 846.003 18.438C844.263 16.582 843.393 14.0493 843.393 10.84C843.393 7.55333 844.263 5.00133 846.003 3.184C847.743 1.328 850.43 0.399997 854.065 0.399997ZM854.123 41L878.425 1.154H884.747L860.561 41H854.123ZM854.065 4.808C852.866 4.808 851.977 5.272 851.397 6.2C850.855 7.08933 850.585 8.30733 850.585 9.854V11.71C850.585 13.2567 850.855 14.494 851.397 15.422C851.977 16.3113 852.866 16.756 854.065 16.756C856.346 16.756 857.487 15.074 857.487 11.71V9.854C857.487 6.49 856.346 4.808 854.065 4.808ZM884.921 20.932C888.555 20.932 891.223 21.86 892.925 23.716C894.665 25.5333 895.535 28.0853 895.535 31.372C895.535 34.5813 894.665 37.114 892.925 38.97C891.223 40.7873 888.555 41.696 884.921 41.696C881.286 41.696 878.599 40.7873 876.859 38.97C875.119 37.114 874.249 34.5813 874.249 31.372C874.249 28.0853 875.119 25.5333 876.859 23.716C878.599 21.86 881.286 20.932 884.921 20.932ZM884.921 25.34C883.722 25.34 882.833 25.804 882.253 26.732C881.711 27.6213 881.441 28.8393 881.441 30.386V32.242C881.441 33.7887 881.711 35.026 882.253 35.954C882.833 36.8433 883.722 37.288 884.921 37.288C887.202 37.288 888.343 35.606 888.343 32.242V30.386C888.343 27.022 887.202 25.34 884.921 25.34Z" fill="#F2F2F2"/>
</svg>
