<svg width="363" height="44" viewBox="0 0 363 44" fill="none" xmlns="http://www.w3.org/2000/svg">
<path d="M19.3616 2.36631C24.4656 2.36631 28.661 3.41031 31.9476 5.49831C35.2343 7.54764 36.9163 10.6023 36.9936 14.6623V15.3583H24.9876V15.1263C24.9876 13.9663 24.5623 12.9996 23.7116 12.2263C22.861 11.453 21.5656 11.0663 19.8256 11.0663C18.1243 11.0663 16.8096 11.3176 15.8816 11.8203C14.9923 12.323 14.5476 12.9416 14.5476 13.6763C14.5476 14.7203 15.1663 15.4936 16.4036 15.9963C17.641 16.499 19.6323 17.021 22.3776 17.5623C25.587 18.2196 28.2163 18.9156 30.2656 19.6503C32.3536 20.3463 34.171 21.5063 35.7176 23.1303C37.2643 24.7543 38.057 26.9583 38.0956 29.7423C38.0956 34.4596 36.491 37.959 33.2816 40.2403C30.111 42.5216 25.8576 43.6623 20.5216 43.6623C14.2963 43.6623 9.44362 42.6183 5.96362 40.5303C2.52228 38.4423 0.801617 34.7496 0.801617 29.4523H12.9236C12.9236 31.463 13.4456 32.8163 14.4896 33.5123C15.5336 34.1696 17.1576 34.4983 19.3616 34.4983C20.9856 34.4983 22.3196 34.3243 23.3636 33.9763C24.4463 33.6283 24.9876 32.913 24.9876 31.8303C24.9876 30.8636 24.3883 30.1483 23.1896 29.6843C22.0296 29.1816 20.1156 28.6596 17.4476 28.1183C14.1996 27.4223 11.5123 26.707 9.38562 25.9723C7.25895 25.199 5.40295 23.9423 3.81762 22.2023C2.23228 20.4623 1.43962 18.1036 1.43962 15.1263C1.43962 10.757 3.12162 7.54764 6.48562 5.49831C9.88828 3.41031 14.1803 2.36631 19.3616 2.36631ZM66.439 42.9663L65.685 38.3263C64.4864 39.989 62.901 41.3036 60.929 42.2703C58.9957 43.1983 56.9464 43.6623 54.781 43.6623C51.2237 43.6623 48.5557 42.6763 46.777 40.7043C44.9984 38.7323 44.109 35.8903 44.109 32.1783V12.3423H55.651V30.7863C55.651 32.101 55.9797 33.1643 56.637 33.9763C57.333 34.7496 58.2997 35.1363 59.537 35.1363C60.9677 35.1363 62.1277 34.6723 63.017 33.7443C63.9064 32.8163 64.351 31.6756 64.351 30.3223V12.3423H75.893V42.9663H66.439ZM98.0486 11.6463C102.147 11.6463 105.608 12.4583 108.431 14.0823C111.292 15.6676 112.723 18.1423 112.723 21.5063H101.993C101.993 20.385 101.49 19.5923 100.485 19.1283C99.7886 18.7416 98.9186 18.5483 97.8746 18.5483C95.0906 18.5483 93.6986 19.2056 93.6986 20.5203C93.6986 21.255 94.1819 21.777 95.1486 22.0863C96.1153 22.3956 97.7006 22.7243 99.9046 23.0723C102.611 23.459 104.873 23.923 106.691 24.4643C108.508 24.967 110.093 25.895 111.447 27.2483C112.8 28.563 113.477 30.419 113.477 32.8163C113.477 36.7216 112.007 39.5056 109.069 41.1683C106.169 42.831 102.36 43.6623 97.6426 43.6623C94.9359 43.6623 92.3839 43.295 89.9866 42.5603C87.5893 41.787 85.6366 40.6076 84.1286 39.0223C82.6206 37.437 81.8666 35.4263 81.8666 32.9903H92.5966V33.2223C92.6353 34.537 93.1766 35.465 94.2206 36.0063C95.3033 36.509 96.4439 36.7603 97.6426 36.7603C100.852 36.7603 102.457 36.0063 102.457 34.4983C102.457 33.725 101.954 33.1643 100.949 32.8163C99.9433 32.4683 98.2999 32.101 96.0186 31.7143C93.2733 31.2503 91.0113 30.7476 89.2326 30.2063C87.4926 29.665 85.9653 28.7563 84.6506 27.4803C83.3359 26.1656 82.6786 24.3483 82.6786 22.0283C82.6786 18.2776 84.0899 15.6096 86.9126 14.0243C89.7739 12.439 93.4859 11.6463 98.0486 11.6463ZM135.362 11.6463C140.388 11.6463 144.448 12.729 147.542 14.8943C150.674 17.021 152.24 20.2883 152.24 24.6963H141.046C141.046 21.2163 139.151 19.4763 135.362 19.4763C131.572 19.4763 129.678 21.661 129.678 26.0303V29.3363C129.678 33.667 131.65 35.8323 135.594 35.8323C139.538 35.8323 141.51 34.0536 141.51 30.4963H152.24C152.24 34.943 150.674 38.249 147.542 40.4143C144.448 42.5796 140.388 43.6623 135.362 43.6623C129.987 43.6623 125.772 42.309 122.718 39.6023C119.663 36.8956 118.136 32.913 118.136 27.6543C118.136 22.3956 119.663 18.413 122.718 15.7063C125.772 12.9996 129.987 11.6463 135.362 11.6463ZM177.411 11.5883C178.301 11.5883 179.093 11.7043 179.789 11.9363C180.485 12.1296 180.833 12.2456 180.833 12.2843V21.9703H177.121C174.724 21.9703 172.984 22.589 171.901 23.8263C170.857 25.0636 170.335 26.9003 170.335 29.3363V42.9663H158.793V12.3423H168.247L169.001 16.9823C169.697 15.2036 170.799 13.8696 172.307 12.9803C173.815 12.0523 175.517 11.5883 177.411 11.5883ZM185.551 8.74631V0.916307L197.093 0.916307V8.74631H185.551ZM185.551 42.9663V12.3423H197.093V42.9663H185.551ZM216.639 15.1843C218.843 12.8256 221.704 11.6463 225.223 11.6463C229.36 11.6463 232.55 12.9996 234.793 15.7063C237.036 18.3743 238.157 22.3376 238.157 27.5963C238.157 32.8936 237.036 36.8956 234.793 39.6023C232.55 42.309 229.36 43.6623 225.223 43.6623C220.97 43.6623 217.722 41.9803 215.479 38.6163L214.493 42.9663H205.097V0.916307H216.639V15.1843ZM221.627 20.1723C219.926 20.1723 218.65 20.791 217.799 22.0283C216.948 23.227 216.523 24.793 216.523 26.7263V28.6403C216.523 30.5736 216.948 32.1396 217.799 33.3383C218.65 34.537 219.926 35.1363 221.627 35.1363C224.952 35.1363 226.615 33.1643 226.615 29.2203V26.1463C226.615 22.1636 224.952 20.1723 221.627 20.1723ZM244.711 8.74631V0.916307H256.253V8.74631H244.711ZM244.711 42.9663V12.3423H256.253V42.9663L244.711 42.9663ZM280.033 11.6463C285.64 11.6463 289.912 12.961 292.851 15.5903C295.828 18.2196 297.317 22.241 297.317 27.6543V29.6263H274.349C274.349 31.8303 274.832 33.493 275.799 34.6143C276.804 35.7356 278.37 36.2963 280.497 36.2963C282.43 36.2963 283.842 35.8903 284.731 35.0783C285.659 34.2663 286.123 33.1836 286.123 31.8303H297.317C297.317 35.5423 295.906 38.4423 293.083 40.5303C290.26 42.6183 286.142 43.6623 280.729 43.6623C275.045 43.6623 270.637 42.3476 267.505 39.7183C264.373 37.0503 262.807 33.029 262.807 27.6543C262.807 22.3956 264.334 18.413 267.389 15.7063C270.444 12.9996 274.658 11.6463 280.033 11.6463ZM280.497 19.0123C276.862 19.0123 274.832 20.733 274.407 24.1743H285.659C285.659 22.589 285.195 21.3323 284.267 20.4043C283.378 19.4763 282.121 19.0123 280.497 19.0123ZM323.881 12.3423V20.1723H317.385V31.8303C317.385 33.2223 317.617 34.247 318.081 34.9043C318.545 35.523 319.395 35.8323 320.633 35.8323H323.881V42.6183C322.953 42.9276 321.754 43.179 320.285 43.3723C318.815 43.5656 317.539 43.6623 316.457 43.6623C313.054 43.6623 310.425 43.0436 308.569 41.8063C306.751 40.569 305.843 38.4616 305.843 35.4843V20.1723H301.551V12.3423H306.307L308.801 3.06231H317.385V12.3423H323.881ZM345.65 11.6463C351.257 11.6463 355.529 12.961 358.468 15.5903C361.445 18.2196 362.934 22.241 362.934 27.6543V29.6263H339.966C339.966 31.8303 340.449 33.493 341.416 34.6143C342.421 35.7356 343.987 36.2963 346.114 36.2963C348.047 36.2963 349.459 35.8903 350.348 35.0783C351.276 34.2663 351.74 33.1836 351.74 31.8303H362.934C362.934 35.5423 361.523 38.4423 358.7 40.5303C355.877 42.6183 351.759 43.6623 346.346 43.6623C340.662 43.6623 336.254 42.3476 333.122 39.7183C329.99 37.0503 328.424 33.029 328.424 27.6543C328.424 22.3956 329.951 18.413 333.006 15.7063C336.061 12.9996 340.275 11.6463 345.65 11.6463ZM346.114 19.0123C342.479 19.0123 340.449 20.733 340.024 24.1743H351.276C351.276 22.589 350.812 21.3323 349.884 20.4043C348.995 19.4763 347.738 19.0123 346.114 19.0123Z" fill="#1B1F21"/>
</svg>
