<svg width="296" height="43" viewBox="0 0 296 43" fill="none" xmlns="http://www.w3.org/2000/svg">
<path d="M34.863 42.293L29.701 17.991H29.469L24.307 42.293H10.213L0.874961 2.38897H14.215L18.797 25.009H19.029L23.553 2.38897H36.197L41.011 25.009H41.243L45.535 2.38897H58.295L48.957 42.293H34.863ZM76.9497 10.973C82.5563 10.973 86.829 12.2876 89.7677 14.917C92.745 17.5463 94.2337 21.5676 94.2337 26.981V28.953H71.2657C71.2657 31.157 71.749 32.8196 72.7157 33.941C73.721 35.0623 75.287 35.623 77.4137 35.623C79.347 35.623 80.7583 35.217 81.6477 34.405C82.5757 33.593 83.0397 32.5103 83.0397 31.157H94.2337C94.2337 34.869 92.8223 37.769 89.9997 39.857C87.177 41.945 83.059 42.989 77.6457 42.989C71.9617 42.989 67.5537 41.6743 64.4217 39.045C61.2897 36.377 59.7237 32.3556 59.7237 26.981C59.7237 21.7223 61.251 17.7396 64.3057 15.033C67.3603 12.3263 71.575 10.973 76.9497 10.973ZM77.4137 18.339C73.779 18.339 71.749 20.0596 71.3237 23.501H82.5757C82.5757 21.9156 82.1117 20.659 81.1837 19.731C80.2943 18.803 79.0377 18.339 77.4137 18.339ZM111.415 14.511C113.619 12.1523 116.48 10.973 119.999 10.973C124.136 10.973 127.326 12.3263 129.569 15.033C131.811 17.701 132.933 21.6643 132.933 26.923C132.933 32.2203 131.811 36.2223 129.569 38.929C127.326 41.6356 124.136 42.989 119.999 42.989C115.745 42.989 112.497 41.307 110.255 37.943L109.269 42.293H99.8728V0.242967H111.415V14.511ZM116.403 19.499C114.701 19.499 113.425 20.1176 112.575 21.355C111.724 22.5536 111.299 24.1196 111.299 26.053V27.967C111.299 29.9003 111.724 31.4663 112.575 32.665C113.425 33.8636 114.701 34.463 116.403 34.463C119.728 34.463 121.391 32.491 121.391 28.547V25.473C121.391 21.4903 119.728 19.499 116.403 19.499ZM139.486 8.07297V0.242967H151.028V8.07297H139.486ZM139.486 42.293V11.669H151.028V42.293H139.486ZM180.087 10.973C183.644 10.973 186.312 11.959 188.091 13.931C189.869 15.903 190.759 18.745 190.759 22.457V42.293H179.217V23.849C179.217 22.5343 178.869 21.4903 178.173 20.717C177.515 19.905 176.568 19.499 175.331 19.499C173.9 19.499 172.74 19.963 171.851 20.891C170.961 21.819 170.517 22.9596 170.517 24.313V42.293H158.975V11.669H168.429L169.183 16.309C170.381 14.685 171.947 13.3896 173.881 12.423C175.853 11.4563 177.921 10.973 180.087 10.973ZM213.378 10.973C218.057 10.973 221.866 11.7656 224.804 13.351C227.743 14.8976 229.212 17.4303 229.212 20.949V32.897C229.212 33.5543 229.367 34.0956 229.676 34.521C229.986 34.9463 230.45 35.159 231.068 35.159H233.156V41.829C233.04 41.9063 232.731 42.0416 232.228 42.235C231.764 42.3896 231.088 42.5443 230.198 42.699C229.309 42.8923 228.284 42.989 227.124 42.989C224.882 42.989 223.026 42.6603 221.556 42.003C220.126 41.307 219.14 40.3596 218.598 39.161C217.129 40.321 215.486 41.249 213.668 41.945C211.851 42.641 209.724 42.989 207.288 42.989C200.096 42.989 196.5 40.1276 196.5 34.405C196.5 31.4276 197.293 29.1656 198.878 27.619C200.502 26.0336 202.822 24.951 205.838 24.371C208.854 23.791 212.798 23.501 217.67 23.501V21.993C217.67 20.7943 217.245 19.8856 216.394 19.267C215.582 18.6483 214.519 18.339 213.204 18.339C212.006 18.339 210.962 18.5516 210.072 18.977C209.222 19.4023 208.796 20.079 208.796 21.007V21.239H197.428C197.39 21.0456 197.37 20.775 197.37 20.427C197.37 17.527 198.743 15.2263 201.488 13.525C204.272 11.8236 208.236 10.973 213.378 10.973ZM217.67 28.953C214.384 28.953 211.948 29.3203 210.362 30.055C208.816 30.751 208.042 31.6983 208.042 32.897C208.042 34.8303 209.357 35.797 211.986 35.797C213.494 35.797 214.809 35.391 215.93 34.579C217.09 33.767 217.67 32.7616 217.67 31.563V28.953ZM256.124 10.915C257.013 10.915 257.806 11.031 258.502 11.263C259.198 11.4563 259.546 11.5723 259.546 11.611V21.297H255.834C253.437 21.297 251.697 21.9156 250.614 23.153C249.57 24.3903 249.048 26.227 249.048 28.663V42.293H237.506V11.669H246.96L247.714 16.309C248.41 14.5303 249.512 13.1963 251.02 12.307C252.528 11.379 254.229 10.915 256.124 10.915ZM279.888 10.973C283.987 10.973 287.447 11.785 290.27 13.409C293.131 14.9943 294.562 17.469 294.562 20.833H283.832C283.832 19.7116 283.329 18.919 282.324 18.455C281.628 18.0683 280.758 17.875 279.714 17.875C276.93 17.875 275.538 18.5323 275.538 19.847C275.538 20.5816 276.021 21.1036 276.988 21.413C277.955 21.7223 279.54 22.051 281.744 22.399C284.451 22.7856 286.713 23.2496 288.53 23.791C290.347 24.2936 291.933 25.2216 293.286 26.575C294.639 27.8896 295.316 29.7456 295.316 32.143C295.316 36.0483 293.847 38.8323 290.908 40.495C288.008 42.1576 284.199 42.989 279.482 42.989C276.775 42.989 274.223 42.6216 271.826 41.887C269.429 41.1136 267.476 39.9343 265.968 38.349C264.46 36.7636 263.706 34.753 263.706 32.317H274.436V32.549C274.475 33.8636 275.016 34.7916 276.06 35.333C277.143 35.8356 278.283 36.087 279.482 36.087C282.691 36.087 284.296 35.333 284.296 33.825C284.296 33.0516 283.793 32.491 282.788 32.143C281.783 31.795 280.139 31.4276 277.858 31.041C275.113 30.577 272.851 30.0743 271.072 29.533C269.332 28.9916 267.805 28.083 266.49 26.807C265.175 25.4923 264.518 23.675 264.518 21.355C264.518 17.6043 265.929 14.9363 268.752 13.351C271.613 11.7656 275.325 10.973 279.888 10.973Z" fill="#1B1F21"/>
</svg>
