<svg width="292" height="218" viewBox="0 0 292 218" fill="none" xmlns="http://www.w3.org/2000/svg">
<path d="M143.764 91.7283L26.0518 217.033L291.375 179.867L143.764 91.7283Z" fill="#FE6D44"/>
<path fill-rule="evenodd" clip-rule="evenodd" d="M267.651 172.378L261.394 173.254C260.191 173.423 259.352 174.535 259.521 175.738C259.689 176.941 260.801 177.78 262.005 177.611L268.261 176.735C269.464 176.566 270.303 175.454 270.135 174.251C269.966 173.048 268.854 172.209 267.651 172.378ZM242.625 175.883L230.112 177.636C228.909 177.804 228.07 178.917 228.239 180.12C228.407 181.323 229.519 182.162 230.722 181.993L243.235 180.241C244.439 180.072 245.277 178.96 245.109 177.757C244.94 176.553 243.828 175.715 242.625 175.883ZM211.343 180.265L198.83 182.018C197.626 182.186 196.788 183.299 196.956 184.502C197.125 185.705 198.237 186.544 199.44 186.375L211.953 184.623C213.156 184.454 213.995 183.342 213.827 182.139C213.658 180.935 212.546 180.097 211.343 180.265ZM180.06 184.647L167.547 186.4C166.344 186.568 165.505 187.68 165.674 188.884C165.842 190.087 166.955 190.926 168.158 190.757L180.671 189.005C181.874 188.836 182.713 187.724 182.544 186.521C182.376 185.317 181.264 184.478 180.06 184.647ZM148.778 189.029L136.265 190.782C135.062 190.95 134.223 192.062 134.392 193.266C134.56 194.469 135.672 195.308 136.876 195.139L149.388 193.386C150.592 193.218 151.431 192.106 151.262 190.903C151.093 189.699 149.981 188.86 148.778 189.029ZM117.496 193.411L104.983 195.164C103.78 195.332 102.941 196.444 103.109 197.648C103.278 198.851 104.39 199.69 105.593 199.521L118.106 197.768C119.309 197.6 120.148 196.488 119.98 195.284C119.811 194.081 118.699 193.242 117.496 193.411ZM86.2135 197.793L73.7006 199.546C72.4973 199.714 71.6585 200.826 71.8271 202.03C71.9956 203.233 73.1077 204.072 74.311 203.903L86.8239 202.15C88.0272 201.982 88.866 200.87 88.6975 199.666C88.5289 198.463 87.4168 197.624 86.2135 197.793ZM54.9312 202.175L48.6748 203.051C47.4715 203.22 46.6327 204.332 46.8013 205.535C46.9698 206.738 48.0819 207.577 49.2852 207.409L55.5416 206.532C56.7449 206.364 57.5837 205.252 57.4152 204.048C57.2466 202.845 56.1345 202.006 54.9312 202.175Z" fill="#1B1F21"/>
<path d="M147.204 110.892L291.374 179.865L266.874 4.95979L147.204 110.892Z" fill="#FE6D44"/>
<path d="M147.204 110.892L291.374 179.865L266.874 4.95979L147.204 110.892Z" fill="#FCFAF9" fill-opacity="0.12"/>
<path fill-rule="evenodd" clip-rule="evenodd" d="M281.56 164.998C282.221 164.521 282.564 163.717 282.451 162.909L281.445 155.728C281.276 154.525 280.164 153.686 278.961 153.855C277.758 154.023 276.919 155.136 277.087 156.339L277.516 159.396L274.884 158.093C273.795 157.554 272.475 158 271.936 159.089C271.397 160.178 271.843 161.498 272.932 162.037L279.296 165.186C280.027 165.548 280.898 165.476 281.56 164.998ZM277.56 143.851C278.763 143.682 279.602 142.57 279.433 141.367L277.421 127.005C277.253 125.802 276.141 124.963 274.937 125.132C273.734 125.3 272.895 126.412 273.064 127.616L275.076 141.977C275.244 143.181 276.356 144.019 277.56 143.851ZM273.536 115.128C274.739 114.959 275.578 113.847 275.41 112.644L273.398 98.2822C273.229 97.0789 272.117 96.2401 270.914 96.4086C269.711 96.5772 268.872 97.6893 269.04 98.8926L271.052 113.254C271.221 114.457 272.333 115.296 273.536 115.128ZM269.513 86.4045C270.716 86.236 271.555 85.1239 271.386 83.9206L269.374 69.559C269.206 68.3558 268.094 67.517 266.89 67.6855C265.687 67.8541 264.848 68.9661 265.017 70.1694L267.029 84.531C267.197 85.7343 268.309 86.5731 269.513 86.4045ZM265.489 57.6814C266.692 57.5128 267.531 56.4008 267.363 55.1975L266.357 48.0167C266.188 46.8134 265.076 45.9746 263.873 46.1432C262.67 46.3117 261.831 47.4238 261.999 48.6271L263.005 55.8079C263.174 57.0111 264.286 57.8499 265.489 57.6814ZM263.152 154.742C263.691 153.653 263.245 152.334 262.156 151.795L249.429 145.496C248.34 144.957 247.02 145.403 246.481 146.492C245.942 147.581 246.388 148.901 247.477 149.44L260.205 155.738C261.294 156.277 262.613 155.831 263.152 154.742ZM237.697 142.145C238.236 141.056 237.79 139.737 236.701 139.198L223.973 132.899C222.884 132.36 221.565 132.806 221.026 133.895C220.487 134.984 220.933 136.304 222.022 136.843L234.749 143.141C235.838 143.68 237.158 143.234 237.697 142.145ZM212.242 129.548C212.781 128.459 212.335 127.14 211.246 126.601L198.518 120.302C197.429 119.763 196.109 120.209 195.57 121.298C195.032 122.387 195.477 123.707 196.566 124.246L209.294 130.544C210.383 131.083 211.703 130.637 212.242 129.548ZM186.786 116.951C187.325 115.862 186.879 114.542 185.79 114.004L179.426 110.854C178.337 110.315 177.018 110.761 176.479 111.85C175.94 112.939 176.386 114.259 177.475 114.798L183.839 117.947C184.928 118.486 186.247 118.04 186.786 116.951Z" fill="#1B1F21"/>
<path d="M145.722 111.101L26.0518 217.033L1.55133 42.1278L145.722 111.101Z" fill="#FE6D44"/>
<path d="M145.722 111.101L26.0518 217.033L1.55133 42.1278L145.722 111.101Z" fill="#FCFAF9" fill-opacity="0.12"/>
<path fill-rule="evenodd" clip-rule="evenodd" d="M12.3158 56.4049C13.5189 56.2346 14.6322 57.0718 14.8024 58.2749L15.7855 65.2204C15.9557 66.4234 15.1185 67.5367 13.9155 67.707C12.7125 67.8773 11.5992 67.0401 11.4289 65.837L10.4459 58.8915C10.2756 57.6884 11.1128 56.5752 12.3158 56.4049ZM15.265 77.2415C16.468 77.0713 17.5813 77.9085 17.7516 79.1115L19.7176 93.0026C19.8879 94.2057 19.0507 95.3189 17.8477 95.4892C16.6446 95.6595 15.5313 94.8223 15.3611 93.6192L13.395 79.7281C13.2247 78.5251 14.0619 77.4118 15.265 77.2415ZM19.1971 105.024C20.4002 104.853 21.5135 105.691 21.6837 106.894L23.6498 120.785C23.8201 121.988 22.9829 123.101 21.7798 123.271C20.5768 123.442 19.4635 122.604 19.2932 121.401L17.3271 107.51C17.1569 106.307 17.9941 105.194 19.1971 105.024ZM23.1293 132.806C24.3323 132.636 25.4456 133.473 25.6159 134.676L27.582 148.567C27.7522 149.77 26.915 150.883 25.712 151.054C24.509 151.224 23.3957 150.387 23.2254 149.184L21.2593 135.293C21.089 134.09 21.9263 132.976 23.1293 132.806ZM27.0615 160.588C28.2645 160.418 29.3778 161.255 29.5481 162.458L31.5141 176.349C31.6844 177.552 30.8472 178.666 29.6442 178.836C28.4411 179.006 27.3278 178.169 27.1576 176.966L25.1915 163.075C25.0212 161.872 25.8584 160.758 27.0615 160.588ZM30.9936 188.37C32.1967 188.2 33.3099 189.037 33.4802 190.24L33.8807 193.07L36.0586 191.09C36.9576 190.272 38.349 190.339 39.1663 191.238C39.9837 192.137 39.9175 193.528 39.0185 194.345L33.765 199.122C33.1619 199.67 32.3052 199.84 31.5385 199.564C30.7719 199.287 30.2209 198.609 30.1067 197.803L29.1236 190.857C28.9534 189.654 29.7906 188.541 30.9936 188.37ZM46.418 184.644C45.6006 183.745 45.6667 182.354 46.5657 181.537L57.0729 171.983C57.9719 171.166 59.3633 171.232 60.1807 172.131C60.998 173.03 60.9319 174.422 60.0329 175.239L49.5257 184.792C48.6267 185.609 47.2353 185.543 46.418 184.644ZM67.4323 165.538C66.6149 164.639 66.6811 163.247 67.5801 162.43L78.0872 152.877C78.9862 152.059 80.3776 152.126 81.195 153.025C82.0124 153.924 81.9462 155.315 81.0472 156.132L70.54 165.686C69.6411 166.503 68.2497 166.437 67.4323 165.538ZM88.4466 146.431C87.6292 145.532 87.6954 144.141 88.5944 143.324L99.1016 133.77C100.001 132.953 101.392 133.019 102.209 133.918C103.027 134.817 102.961 136.209 102.062 137.026L91.5544 146.579C90.6554 147.397 89.264 147.33 88.4466 146.431ZM109.461 127.325C108.644 126.426 108.71 125.035 109.609 124.217L114.862 119.441C115.761 118.623 117.153 118.689 117.97 119.588C118.787 120.487 118.721 121.879 117.822 122.696L112.569 127.473C111.67 128.29 110.278 128.224 109.461 127.325Z" fill="#1B1F21"/>
<path d="M149.162 130.265L1.55078 42.1261L266.874 4.96014L149.162 130.265Z" fill="#FE6D44"/>
<path d="M149.162 130.265L1.55078 42.1261L266.874 4.96014L149.162 130.265Z" fill="#FCFAF9" fill-opacity="0.25"/>
<path fill-rule="evenodd" clip-rule="evenodd" d="M254.889 2.88201C255.895 3.82736 255.945 5.4095 255 6.41582L250.754 10.9357C249.808 11.942 248.226 11.9915 247.22 11.0461C246.213 10.1008 246.164 8.51865 247.109 7.51233L251.355 2.99243C252.301 1.9861 253.883 1.93667 254.889 2.88201ZM12.5044 36.8348C13.2122 35.6494 14.7471 35.2622 15.9325 35.97L21.257 39.1493C22.4425 39.8572 22.8297 41.392 22.1218 42.5774C21.414 43.7629 19.8792 44.1501 18.6937 43.4422L13.3692 40.263C12.1837 39.5551 11.7965 38.0203 12.5044 36.8348ZM241.498 17.1371C242.504 18.0824 242.554 19.6646 241.608 20.6709L233.116 29.7107C232.171 30.717 230.589 30.7664 229.582 29.8211C228.576 28.8758 228.527 27.2936 229.472 26.2873L237.964 17.2475C238.909 16.2412 240.492 16.1917 241.498 17.1371ZM29.297 46.8618C30.0049 45.6763 31.5397 45.2891 32.7252 45.997L43.3742 52.3555C44.5596 53.0634 44.9468 54.5982 44.239 55.7837C43.5311 56.9691 41.9963 57.3563 40.8108 56.6485L30.1619 50.2899C28.9764 49.5821 28.5892 48.0473 29.297 46.8618ZM223.861 35.9121C224.867 36.8574 224.916 38.4395 223.971 39.4459L215.479 48.4857C214.534 49.492 212.952 49.5414 211.945 48.5961C210.939 47.6507 210.889 46.0686 211.835 45.0623L220.327 36.0225C221.272 35.0161 222.854 34.9667 223.861 35.9121ZM51.4142 60.068C52.122 58.8826 53.6569 58.4954 54.8423 59.2032L65.4913 65.5618C66.6768 66.2696 67.064 67.8045 66.3561 68.9899C65.6483 70.1754 64.1135 70.5626 62.928 69.8547L52.279 63.4962C51.0935 62.7883 50.7064 61.2535 51.4142 60.068ZM206.223 54.687C207.23 55.6324 207.279 57.2145 206.334 58.2208L197.842 67.2606C196.896 68.267 195.314 68.3164 194.308 67.371C193.302 66.4257 193.252 64.8436 194.198 63.8372L202.69 54.7974C203.635 53.7911 205.217 53.7417 206.223 54.687ZM73.5314 73.2743C74.2392 72.0888 75.774 71.7016 76.9595 72.4095L87.6085 78.768C88.794 79.4759 89.1811 81.0107 88.4733 82.1962C87.7655 83.3816 86.2306 83.7688 85.0452 83.061L74.3962 76.7024C73.2107 75.9946 72.8235 74.4597 73.5314 73.2743ZM188.586 73.462C189.592 74.4073 189.642 75.9895 188.696 76.9958L180.204 86.0356C179.259 87.0419 177.677 87.0914 176.671 86.146C175.664 85.2007 175.615 83.6185 176.56 82.6122L185.052 73.5724C185.998 72.5661 187.58 72.5166 188.586 73.462ZM95.6485 86.4805C96.3564 85.2951 97.8912 84.9079 99.0766 85.6157L109.726 91.9743C110.911 92.6821 111.298 94.2169 110.59 95.4024C109.883 96.5879 108.348 96.9751 107.162 96.2672L96.5133 89.9087C95.3279 89.2008 94.9407 87.666 95.6485 86.4805ZM170.949 92.237C171.955 93.1823 172.005 94.7645 171.059 95.7708L162.567 104.811C161.622 105.817 160.04 105.866 159.033 104.921C158.027 103.976 157.978 102.394 158.923 101.387L167.415 92.3474C168.36 91.3411 169.942 91.2916 170.949 92.237ZM117.766 99.6868C118.474 98.5013 120.008 98.1141 121.194 98.822L131.843 105.181C133.028 105.888 133.415 107.423 132.708 108.609C132 109.794 130.465 110.181 129.279 109.473L118.63 103.115C117.445 102.407 117.058 100.872 117.766 99.6868ZM139.883 112.893C140.591 111.708 142.125 111.32 143.311 112.028L146.909 114.176L149.778 111.122C150.723 110.116 152.305 110.067 153.311 111.012C154.318 111.957 154.367 113.539 153.422 114.546L149.176 119.066C148.372 119.922 147.08 120.102 146.072 119.5L140.748 116.321C139.562 115.613 139.175 114.078 139.883 112.893Z" fill="#1B1F21"/>
</svg>
