<svg width="272" height="207" viewBox="0 0 272 207" fill="none" xmlns="http://www.w3.org/2000/svg">
<path d="M99.6237 41.884C109.368 32.2751 123.439 28.5049 136.682 31.9542L151.268 35.7531C157.784 37.4503 164.627 37.4253 171.127 35.6804L197.425 28.6207C208.538 25.6374 219.968 32.262 222.937 43.4069L223.038 43.7863C224.915 50.8299 230.434 56.317 237.479 58.141C252.657 62.0715 257.755 81.098 246.575 92.0911C241.387 97.1929 239.35 104.705 241.247 111.743L241.349 112.122C244.351 123.258 237.764 134.71 226.648 137.683L200.343 144.719C193.842 146.457 187.904 149.857 183.109 154.585L172.377 165.168C162.632 174.777 148.562 178.547 135.318 175.098L120.732 171.299C114.216 169.601 107.374 169.627 100.874 171.371L74.5755 178.431C63.4623 181.414 52.032 174.79 49.063 163.645L48.9619 163.265C47.0855 156.222 41.5658 150.735 34.5217 148.911C19.3433 144.98 14.2452 125.954 25.4248 114.961C30.6131 109.859 32.6498 102.347 30.753 95.309L30.6509 94.9299C27.6497 83.7936 34.2362 72.3414 45.3522 69.3684L71.657 62.3331C78.1585 60.5943 84.0967 57.1948 88.8915 52.4668L99.6237 41.884Z" fill="#FFAD20"/>
<path fill-rule="evenodd" clip-rule="evenodd" d="M80.1645 67.042C79.4814 67.2883 78.7901 67.5153 78.0915 67.7226C77.763 67.8201 77.4328 67.9132 77.1011 68.002L72.2088 69.3106C72.8315 71.6387 75.2237 73.0212 77.5518 72.3985L78.2287 72.2174C78.5985 72.1185 78.9666 72.0146 79.333 71.9059C81.6434 71.2203 82.9605 68.7915 82.2749 66.4812C82.2509 66.4003 82.2248 66.3207 82.1966 66.2424C81.528 66.528 80.8503 66.7947 80.1645 67.042ZM88.9465 62.4986C88.9996 62.5657 89.0549 62.6316 89.1125 62.6962C90.7154 64.4959 93.4737 64.6554 95.2733 63.0525C95.5598 62.7973 95.8429 62.538 96.1224 62.2747L96.6799 61.7493C98.4338 60.0966 98.5159 57.3349 96.8631 55.5809L93.1298 59.0988C92.8801 59.3342 92.6271 59.5659 92.3711 59.794C91.8277 60.2779 91.2702 60.7455 90.6995 61.1962C90.1281 61.6474 89.5435 62.0817 88.9465 62.4986ZM99.4314 53.1609C101.084 54.9149 103.846 54.9969 105.6 53.3442L106.157 52.8188C106.304 52.6805 106.452 52.5437 106.601 52.4084C108.321 50.8469 108.507 48.2259 107.067 46.4406C106.475 46.8621 105.895 47.3018 105.326 47.7594C104.761 48.2144 104.208 48.6872 103.668 49.1773C103.499 49.3309 103.331 49.4861 103.165 49.643L99.4314 53.1609ZM108.924 45.2C110.025 47.215 112.521 48.044 114.622 47.048C114.987 46.8749 115.355 46.7084 115.726 46.5486C117.863 45.6293 118.889 43.2069 118.103 41.0492C117.405 41.2581 116.714 41.4872 116.03 41.7361C115.346 41.9845 114.67 42.2527 114.002 42.5404C113.582 42.721 113.166 42.9092 112.752 43.105C112.096 43.4164 111.448 43.7469 110.809 44.0964C110.171 44.4454 109.542 44.8134 108.924 45.2ZM120.26 40.471C120.658 42.733 122.758 44.3176 125.068 44.0456C125.469 43.9983 125.872 43.9584 126.274 43.9257C128.592 43.7378 130.339 41.7718 130.284 39.4765C129.556 39.4508 128.828 39.4463 128.101 39.463C127.373 39.4797 126.646 39.5176 125.922 39.5763C125.466 39.6133 125.011 39.6585 124.558 39.7119C123.835 39.797 123.115 39.9029 122.399 40.0294C121.682 40.1561 120.969 40.3033 120.26 40.471ZM132.513 39.6223C132.159 41.8885 133.63 44.0654 135.901 44.5576C136.098 44.6002 136.294 44.6447 136.49 44.6911L137.236 44.8673C139.581 45.4217 141.932 43.9698 142.486 41.6244L137.494 40.4445C137.271 40.3919 137.048 40.3413 136.825 40.293C136.112 40.1385 135.397 40.0056 134.68 39.8941C133.959 39.782 133.237 39.6915 132.513 39.6223ZM145.92 42.4361C145.366 44.7815 146.818 47.1321 149.163 47.6865L149.909 47.8627C150.282 47.951 150.657 48.034 151.033 48.1118C153.393 48.6001 155.702 47.0828 156.19 44.7228C156.208 44.638 156.223 44.5533 156.235 44.4687C155.51 44.4061 154.786 44.3223 154.066 44.2173C153.346 44.1123 152.63 43.9861 151.917 43.8387C151.581 43.7692 151.246 43.695 150.912 43.616L145.92 42.4361ZM163.953 44.3359C163.967 44.4178 163.985 44.4998 164.004 44.5818C164.566 46.9255 166.921 48.3703 169.264 47.8089C169.636 47.7199 170.007 47.6257 170.376 47.5265L171.053 47.3448C173.381 46.7201 174.761 44.3267 174.136 41.9991L169.245 43.312C168.914 43.401 168.581 43.4855 168.248 43.5653C167.539 43.735 166.827 43.8841 166.112 44.0123C165.395 44.1411 164.674 44.249 163.953 44.3359ZM176.535 41.3553C177.16 43.6829 179.553 45.0633 181.881 44.4385L183.234 44.0752C185.562 43.4505 186.942 41.0571 186.317 38.7296L176.535 41.3553ZM188.716 38.0857C189.341 40.4133 191.734 41.7937 194.061 41.1689L194.738 40.9873C194.948 40.931 195.158 40.8791 195.367 40.8317C197.563 40.3351 198.995 38.2632 198.74 36.0761C198.017 36.0804 197.288 36.1241 196.556 36.2087C195.841 36.2914 195.123 36.4132 194.405 36.5756C194.139 36.6357 193.873 36.7015 193.607 36.7729L188.716 38.0857ZM203.1 36.5358C202.389 38.6085 203.334 40.929 205.361 41.8897C205.743 42.0711 206.116 42.2681 206.479 42.4801C208.41 43.6092 210.851 43.0873 212.164 41.3432C211.638 40.8369 211.081 40.3627 210.498 39.9226C209.918 39.4852 209.311 39.0815 208.682 38.7133C208.21 38.4375 207.726 38.1817 207.23 37.9466C206.575 37.6361 205.9 37.3619 205.208 37.1257C204.521 36.8908 203.817 36.6936 203.1 36.5358ZM214.923 44.7427C212.951 45.6482 211.918 47.902 212.589 50.0237C212.651 50.2192 212.709 50.4174 212.763 50.6181L212.768 50.6366C212.781 50.6862 212.795 50.7353 212.81 50.784C212.821 50.8336 212.833 50.8832 212.846 50.9327L212.851 50.9512C212.966 51.3818 213.094 51.8071 213.234 52.2267C213.999 54.5121 216.472 55.7447 218.757 54.9798C218.938 54.9192 219.113 54.8478 219.28 54.7666C219.027 54.3815 218.789 53.9857 218.568 53.5802C218.439 53.344 218.315 53.1045 218.197 52.8618C217.996 52.448 217.811 52.025 217.644 51.5934C217.548 51.3457 217.457 51.0951 217.372 50.8418C217.261 50.5085 217.159 50.1705 217.068 49.8282L216.979 49.4951C216.908 49.2291 216.832 48.9661 216.749 48.7062C216.645 48.3752 216.531 48.0493 216.408 47.7286C216.27 47.3695 216.122 47.0169 215.963 46.6711C215.816 46.3537 215.661 46.042 215.498 45.7362C215.316 45.3977 215.125 45.0664 214.923 44.7427ZM225.189 60.3161C225.123 60.4719 225.065 60.6331 225.016 60.7995C224.334 63.1111 225.656 65.5375 227.968 66.2189C228.382 66.3412 228.802 66.4523 229.227 66.5521C229.409 66.5948 229.588 66.6403 229.764 66.6884C231.927 67.2779 234.152 66.1337 234.963 64.1007C234.333 63.7567 233.672 63.4452 232.982 63.1697C232.319 62.9052 231.629 62.6738 230.912 62.4785C230.686 62.4167 230.456 62.3585 230.225 62.3041C229.879 62.223 229.538 62.1326 229.201 62.0334C228.497 61.8256 227.811 61.5788 227.148 61.2953C226.471 61.0061 225.817 60.6788 225.189 60.3161ZM237.089 65.466C235.58 67.0181 235.425 69.487 236.81 71.2242C237.029 71.4989 237.235 71.7814 237.429 72.0711C238.667 73.9166 241.067 74.5154 243.003 73.5465C242.762 72.8574 242.478 72.183 242.151 71.5276C241.827 70.8787 241.461 70.2485 241.054 69.6415C240.793 69.2525 240.516 68.8731 240.222 68.5042C239.772 67.9392 239.282 67.3992 238.756 66.8883C238.236 66.3845 237.68 65.9091 237.089 65.466ZM243.657 75.9879C241.496 76.1167 239.717 77.8354 239.568 80.0521C239.545 80.4001 239.507 80.7481 239.455 81.0954C239.124 83.2924 240.493 85.3529 242.576 85.9426C242.866 85.2631 243.11 84.5734 243.308 83.8774C243.509 83.1717 243.662 82.4595 243.77 81.7449C243.84 81.2785 243.891 80.8112 243.922 80.3439C243.971 79.6148 243.973 78.886 243.929 78.1621C243.884 77.4309 243.793 76.7047 243.657 75.9879ZM241.418 88.1877C239.699 86.8327 237.199 86.9547 235.621 88.5462C235.492 88.6762 235.36 88.8053 235.224 88.9332C234.906 89.2318 234.598 89.538 234.3 89.8513C232.639 91.5972 232.707 94.3593 234.453 96.0205C234.579 96.14 234.71 96.2507 234.845 96.3523C235.208 95.7241 235.61 95.1138 236.052 94.5249C236.485 93.9478 236.955 93.3914 237.461 92.8592C237.703 92.6048 237.953 92.356 238.212 92.1131C238.385 91.95 238.555 91.7851 238.72 91.6183C239.243 91.0909 239.725 90.5455 240.167 89.9849C240.627 89.4011 241.044 88.8009 241.418 88.1877ZM232.503 104.113C232.317 104.126 232.13 104.152 231.943 104.19C229.581 104.67 228.056 106.974 228.536 109.336C228.625 109.769 228.727 110.201 228.843 110.632L228.848 110.65C228.861 110.7 228.875 110.749 228.89 110.797C228.902 110.847 228.914 110.896 228.927 110.946L228.932 110.964C228.986 111.165 229.036 111.366 229.08 111.566C229.559 113.739 231.581 115.174 233.741 114.973C233.754 114.591 233.754 114.209 233.742 113.825C233.731 113.478 233.709 113.131 233.677 112.783C233.642 112.404 233.594 112.024 233.534 111.644C233.48 111.305 233.416 110.966 233.341 110.627C233.282 110.361 233.217 110.094 233.146 109.829L233.056 109.496C232.964 109.154 232.883 108.81 232.813 108.466C232.759 108.204 232.712 107.942 232.672 107.679C232.601 107.222 232.55 106.763 232.517 106.304C232.498 106.035 232.485 105.766 232.479 105.497C232.468 105.035 232.476 104.573 232.503 104.113ZM233.052 119.296C231.042 118.442 228.667 119.211 227.559 121.154C227.352 121.519 227.127 121.876 226.886 122.224C225.611 124.07 225.954 126.552 227.605 127.991C228.147 127.496 228.658 126.974 229.136 126.426C229.617 125.876 230.065 125.301 230.477 124.705C230.788 124.253 231.08 123.789 231.351 123.315C231.712 122.681 232.035 122.028 232.319 121.359C232.604 120.686 232.849 119.997 233.052 119.296ZM224.06 130.569C223.187 128.548 220.911 127.469 218.761 128.137C218.556 128.201 218.348 128.261 218.138 128.317L217.461 128.498C215.133 129.121 213.751 131.513 214.373 133.841L219.266 132.533C219.532 132.461 219.795 132.385 220.055 132.304C220.758 132.086 221.441 131.833 222.101 131.547C222.778 131.254 223.431 130.927 224.06 130.569ZM211.974 134.483C211.352 132.155 208.959 130.772 206.631 131.395L205.278 131.757C202.949 132.38 201.567 134.772 202.19 137.1L211.974 134.483ZM199.791 137.742C199.168 135.414 196.776 134.031 194.448 134.654L193.771 134.835C193.401 134.934 193.033 135.038 192.666 135.146C190.356 135.832 189.039 138.261 189.724 140.571C189.748 140.652 189.775 140.732 189.803 140.81C190.471 140.524 191.149 140.258 191.835 140.01C192.518 139.764 193.209 139.537 193.908 139.33C194.236 139.232 194.567 139.139 194.898 139.05L199.791 137.742ZM183.053 144.554C183 144.487 182.944 144.421 182.887 144.356C181.284 142.556 178.526 142.397 176.726 144C176.44 144.255 176.156 144.514 175.877 144.778L175.319 145.303C173.566 146.956 173.483 149.717 175.136 151.471L178.87 147.954C179.119 147.718 179.372 147.486 179.628 147.258C180.172 146.774 180.729 146.307 181.3 145.856C181.871 145.405 182.456 144.971 183.053 144.554ZM172.568 153.891C170.915 152.138 168.154 152.055 166.4 153.708L165.842 154.234C165.695 154.372 165.547 154.509 165.398 154.644C163.678 156.205 163.492 158.826 164.932 160.612C165.524 160.19 166.105 159.751 166.673 159.293C167.238 158.838 167.791 158.365 168.331 157.875C168.5 157.722 168.668 157.566 168.835 157.409L172.568 153.891ZM163.075 161.852C161.975 159.837 159.479 159.008 157.378 160.004C157.012 160.177 156.644 160.344 156.273 160.504C154.137 161.423 153.11 163.845 153.897 166.003C154.594 165.794 155.285 165.565 155.97 165.316C156.653 165.068 157.329 164.8 157.998 164.512C158.417 164.331 158.834 164.143 159.247 163.947C159.904 163.636 160.552 163.305 161.191 162.956C161.828 162.607 162.457 162.239 163.075 161.852ZM151.739 166.581C151.341 164.319 149.241 162.735 146.931 163.007C146.53 163.054 146.128 163.094 145.725 163.127C143.407 163.315 141.66 165.281 141.715 167.576C142.443 167.602 143.172 167.606 143.899 167.589C144.627 167.573 145.353 167.535 146.078 167.476C146.533 167.439 146.988 167.394 147.442 167.34C148.164 167.255 148.884 167.149 149.6 167.023C150.317 166.896 151.031 166.749 151.739 166.581ZM139.486 167.43C139.841 165.164 138.369 162.987 136.099 162.495C135.902 162.452 135.705 162.408 135.509 162.361L134.764 162.185C132.418 161.631 130.068 163.083 129.513 165.428L134.505 166.608C134.728 166.66 134.951 166.711 135.174 166.759C135.887 166.914 136.602 167.047 137.319 167.158C138.04 167.27 138.763 167.361 139.486 167.43ZM126.079 164.616C126.633 162.271 125.181 159.92 122.836 159.366L122.091 159.19C121.717 159.101 121.342 159.018 120.966 158.941C118.606 158.452 116.297 159.97 115.809 162.33C115.792 162.414 115.777 162.499 115.764 162.584C116.49 162.646 117.213 162.73 117.934 162.835C118.653 162.94 119.37 163.066 120.082 163.214C120.418 163.283 120.753 163.357 121.087 163.436L126.079 164.616ZM108.047 162.716C108.032 162.634 108.015 162.552 107.995 162.47C107.434 160.127 105.079 158.682 102.735 159.243C102.363 159.332 101.993 159.427 101.623 159.526L100.946 159.708C98.6186 160.332 97.2382 162.726 97.863 165.053L102.754 163.74C103.086 163.651 103.418 163.567 103.752 163.487C104.46 163.317 105.172 163.168 105.887 163.04C106.605 162.911 107.325 162.803 108.047 162.716ZM95.4644 165.697C94.8397 163.369 92.4463 161.989 90.1187 162.614L88.7653 162.977C86.4377 163.602 85.0573 165.995 85.6821 168.323L95.4644 165.697ZM83.2836 168.967C82.6588 166.639 80.2655 165.259 77.9379 165.883L77.2612 166.065C77.0512 166.121 76.8415 166.173 76.6319 166.221C74.4359 166.717 73.0045 168.789 73.2592 170.976C73.9824 170.972 74.7115 170.928 75.4437 170.844C76.1586 170.761 76.8765 170.639 77.5945 170.477C77.8605 170.417 78.1265 170.351 78.3924 170.279L83.2836 168.967ZM68.8993 170.516C69.6102 168.444 68.6654 166.123 66.6386 165.163C66.256 164.981 65.8829 164.784 65.5205 164.572C63.5897 163.443 61.1486 163.965 59.835 165.709C60.3613 166.215 60.918 166.69 61.5015 167.13C62.0815 167.567 62.688 167.971 63.3176 168.339C63.7892 168.615 64.2736 168.871 64.7696 169.106C65.4246 169.416 66.0996 169.69 66.7911 169.927C67.4786 170.162 68.1824 170.359 68.8993 170.516ZM57.0764 162.31C59.0479 161.404 60.0818 159.15 59.4099 157.029C59.3479 156.833 59.2902 156.635 59.2367 156.434L59.2318 156.416C59.2186 156.366 59.2046 156.317 59.1898 156.268C59.1784 156.219 59.1661 156.169 59.1529 156.12L59.148 156.101C59.0333 155.671 58.9056 155.245 58.7651 154.826C58.0003 152.54 55.5276 151.308 53.2422 152.073C53.061 152.133 52.8864 152.205 52.7188 152.286C52.9721 152.671 53.2099 153.067 53.4315 153.472C53.5606 153.708 53.6842 153.948 53.8022 154.191C54.0033 154.604 54.188 155.027 54.3556 155.459C54.4518 155.707 54.5423 155.957 54.6271 156.211C54.7387 156.544 54.8402 156.882 54.9313 157.224L55.0201 157.557C55.0909 157.823 55.1676 158.086 55.2499 158.346C55.3547 158.677 55.4687 159.003 55.5915 159.324C55.729 159.683 55.8776 160.035 56.0368 160.381C56.183 160.699 56.3381 161.01 56.5017 161.316C56.6829 161.655 56.8746 161.986 57.0764 162.31ZM46.81 146.736C46.8764 146.58 46.9345 146.419 46.9835 146.253C47.665 143.941 46.3434 141.515 44.0318 140.833C43.617 140.711 43.1971 140.6 42.7727 140.5C42.5908 140.458 42.4116 140.412 42.2349 140.364C40.0728 139.774 37.847 140.919 37.0359 142.952C37.6664 143.296 38.3273 143.607 39.0177 143.883C39.6806 144.147 40.3707 144.379 41.0872 144.574C41.3138 144.636 41.5429 144.694 41.7748 144.748C42.12 144.829 42.4612 144.92 42.798 145.019C43.5026 145.227 44.1879 145.474 44.8512 145.757C45.528 146.046 46.1819 146.374 46.81 146.736ZM34.9102 141.586C36.4193 140.034 36.5745 137.565 35.1896 135.828C34.9707 135.553 34.764 135.271 34.5699 134.981C33.3328 133.136 30.9326 132.537 28.9968 133.506C29.2369 134.195 29.5212 134.869 29.8483 135.525C30.1723 136.174 30.5383 136.804 30.9452 137.411C31.2059 137.8 31.4835 138.179 31.7774 138.548C32.2279 139.113 32.7169 139.653 33.2436 140.164C33.763 140.668 34.3189 141.143 34.9102 141.586ZM28.3426 131.064C30.5036 130.936 32.2828 129.217 32.4314 127C32.4547 126.652 32.4924 126.304 32.5446 125.957C32.8753 123.76 31.5065 121.699 29.4236 121.11C29.133 121.789 28.8893 122.479 28.6914 123.175C28.4907 123.881 28.3372 124.593 28.2296 125.307C28.1594 125.774 28.1088 126.241 28.0775 126.708C28.0286 127.438 28.0267 128.166 28.0706 128.89C28.115 129.621 28.206 130.348 28.3426 131.064ZM30.5818 118.865C32.3007 120.22 34.8004 120.098 36.3781 118.506C36.5071 118.376 36.6396 118.247 36.7757 118.119C37.0934 117.821 37.4014 117.514 37.6996 117.201C39.3608 115.455 39.2921 112.693 37.5461 111.032C37.4204 110.912 37.2895 110.802 37.1541 110.7C36.7915 111.328 36.3889 111.939 35.9474 112.527C35.5147 113.105 35.0446 113.661 34.5382 114.193C34.2962 114.448 34.0459 114.696 33.7875 114.939C33.6139 115.102 33.4445 115.267 33.2792 115.434C32.7564 115.961 32.2744 116.507 31.8326 117.067C31.3725 117.651 30.9558 118.251 30.5818 118.865ZM39.4966 102.94C39.6822 102.926 39.8692 102.901 40.0564 102.863C42.4181 102.382 43.9432 100.078 43.4629 97.7168C43.3747 97.2832 43.2727 96.851 43.1567 96.4208L43.1517 96.4023C43.1384 96.3528 43.1242 96.3037 43.1093 96.255C43.0977 96.2055 43.0853 96.1559 43.0719 96.1064L43.067 96.0879C43.0129 95.8873 42.9638 95.6868 42.9197 95.4865C42.4408 93.3131 40.4185 91.8783 38.2583 92.0798C38.2455 92.461 38.2451 92.8438 38.2574 93.2275C38.2686 93.5742 38.2901 93.9217 38.3223 94.2697C38.3573 94.6487 38.4049 95.0284 38.4653 95.4081C38.5193 95.7473 38.5836 96.0865 38.6583 96.4255C38.717 96.6918 38.7821 96.9579 38.8537 97.2237L38.9435 97.5566C39.0357 97.8986 39.1167 98.242 39.1868 98.5865C39.24 98.8482 39.2869 99.1105 39.3274 99.3731C39.3981 99.8307 39.4496 100.289 39.4824 100.748C39.5016 101.017 39.5143 101.287 39.5206 101.556C39.5314 102.018 39.5233 102.479 39.4966 102.94ZM38.9476 87.7565C40.9573 88.6101 43.3323 87.8416 44.4399 85.8983C44.6478 85.5335 44.8723 85.1763 45.113 84.828C46.3879 82.9826 46.0458 80.5005 44.3939 79.061C43.8519 79.5561 43.341 80.0788 42.863 80.6259C42.3822 81.1763 41.9348 81.7513 41.5228 82.3477C41.2109 82.7992 40.9192 83.263 40.6487 83.7376C40.2876 84.3713 39.9642 85.0242 39.6806 85.693C39.3953 86.3659 39.1503 87.0549 38.9476 87.7565ZM47.9398 76.483C48.8127 78.5044 51.0884 79.583 53.2385 78.9151C53.4436 78.8513 53.6512 78.7913 53.8612 78.7352L54.5381 78.5541C56.8662 77.9314 58.2487 75.5393 57.626 73.2111L52.7337 74.5197C52.4677 74.5909 52.2044 74.667 51.944 74.7479C51.241 74.9662 50.5584 75.2197 49.8979 75.5056C49.2215 75.7983 48.5682 76.1251 47.9398 76.483ZM60.0251 72.5694C60.6478 74.8976 63.0399 76.2801 65.3681 75.6573L66.7218 75.2952C69.0499 74.6725 70.4324 72.2804 69.8097 69.9523L60.0251 72.5694Z" fill="#1B1F21"/>
<path d="M138.294 137.641C137.963 136.409 137.941 135.271 138.226 134.227C138.527 133.156 139.084 132.24 139.898 131.48C140.711 130.719 141.719 130.178 142.921 129.856C144.144 129.528 145.287 129.493 146.351 129.751C147.43 129.98 148.356 130.487 149.131 131.27C149.921 132.025 150.485 133.03 150.821 134.285C151.151 135.517 151.166 136.669 150.865 137.74C150.58 138.784 150.03 139.686 149.217 140.446C148.424 141.201 147.417 141.742 146.194 142.07C144.991 142.392 143.851 142.438 142.772 142.208C141.688 141.956 140.747 141.442 139.951 140.664C139.176 139.881 138.624 138.874 138.294 137.641ZM141.963 136.658C142.17 137.428 142.577 137.979 143.186 138.312C143.789 138.622 144.47 138.675 145.229 138.472C145.968 138.274 146.517 137.879 146.878 137.287C147.261 136.689 147.352 136.016 147.151 135.268C146.945 134.498 146.53 133.96 145.905 133.656C145.297 133.324 144.623 133.256 143.885 133.454C143.126 133.658 142.565 134.055 142.204 134.647C141.837 135.218 141.757 135.888 141.963 136.658Z" fill="#1B1F21"/>
<path d="M121.017 73.1657C120.687 71.9332 120.665 70.7952 120.95 69.7517C121.251 68.6804 121.808 67.7646 122.621 67.0041C123.435 66.2437 124.442 65.7024 125.644 65.3803C126.868 65.0525 128.011 65.0174 129.075 65.275C130.153 65.5048 131.08 66.0113 131.855 66.7943C132.645 67.5497 133.208 68.5546 133.544 69.809C133.875 71.0415 133.889 72.1933 133.589 73.2645C133.303 74.3081 132.754 75.2101 131.94 75.9706C131.148 76.7254 130.14 77.2667 128.917 77.5944C127.715 77.9165 126.575 77.9626 125.496 77.7328C124.411 77.4809 123.471 76.9662 122.675 76.1888C121.9 75.4058 121.347 74.3981 121.017 73.1657ZM124.687 72.1824C124.893 72.9527 125.301 73.5039 125.91 73.8361C126.513 74.1463 127.194 74.1996 127.953 73.9962C128.691 73.7984 129.241 73.4035 129.602 72.8113C129.984 72.2136 130.075 71.5405 129.875 70.7923C129.668 70.022 129.253 69.4846 128.629 69.1801C128.02 68.8479 127.347 68.7807 126.609 68.9785C125.849 69.1819 125.289 69.5797 124.928 70.1718C124.561 70.742 124.48 71.4121 124.687 72.1824Z" fill="#1B1F21"/>
<path d="M201.725 75.2766C196.227 76.7497 193.342 82.088 194.889 87.8602C196.449 93.6806 201.603 96.9232 207.104 95.4493C209.715 94.7496 211.681 93.2622 212.811 91.2651C213.941 89.2684 214.223 86.783 213.507 84.1076L213.002 82.2247L202.252 85.1052L203.199 88.6405L209.981 86.8233C210.376 89.0572 208.788 91.0715 206.147 91.7793C204.419 92.2421 202.865 91.9765 201.611 91.1189C200.353 90.2585 199.377 88.7868 198.844 86.8004C198.32 84.8428 198.462 83.1062 199.139 81.754C199.814 80.4047 201.034 79.4156 202.713 78.9657C203.917 78.643 204.995 78.693 205.917 79.06C206.84 79.427 207.626 80.1184 208.236 81.1096L208.354 81.3007L211.771 79.2108L211.66 79.0204C209.704 75.6723 205.95 74.1443 201.725 75.2766Z" fill="#1B1F21"/>
<path d="M60.1615 113.483L56.2396 114.534L61.5057 134.187L65.1902 133.2L61.4573 119.269L68.4992 124.898L69.409 124.654L72.6732 116.187L76.4252 130.19L80.1343 129.196L74.8681 109.542L70.9447 110.594L67.6049 119.454L60.1615 113.483Z" fill="#1B1F21"/>
<path fill-rule="evenodd" clip-rule="evenodd" d="M88.2601 105.954L84.2635 107.025L82.3292 128.608L86.241 127.56L86.7217 121.279L93.1103 119.567L96.6672 124.766L100.727 123.678L88.2601 105.954ZM90.8948 116.344L87.029 117.38L87.4987 111.401L90.8948 116.344Z" fill="#1B1F21"/>
<path fill-rule="evenodd" clip-rule="evenodd" d="M105.046 101.456L97.6649 103.434L102.931 123.088L106.763 122.061L104.717 114.424L107.333 113.724L114.081 120.1L118.457 118.928L111.007 111.879C112.795 110.493 113.639 108.33 112.955 105.777C112.47 103.967 111.418 102.634 110.013 101.881C108.611 101.129 106.878 100.965 105.046 101.456ZM103.749 110.812L102.465 106.019L105.965 105.081C106.756 104.869 107.448 104.949 107.985 105.247C108.521 105.545 108.927 106.073 109.123 106.804C109.322 107.549 109.234 108.208 108.919 108.73C108.602 109.252 108.042 109.662 107.249 109.874L103.749 110.812Z" fill="#1B1F21"/>
<path d="M119.264 97.6464L115.432 98.6732L120.698 118.327L124.531 117.3L122.258 108.818L123.897 108.379L132.128 115.264L136.695 114.041L126.605 105.532L131.233 94.4395L126.595 95.6821L122.998 104.611L121.256 105.078L119.264 97.6464Z" fill="#1B1F21"/>
<path d="M145.942 90.4982L133.296 93.8867L138.562 113.54L151.454 110.086L150.486 106.474L141.426 108.901L140.135 104.083L146.216 102.453L145.248 98.8411L139.167 100.471L138.096 96.472L146.91 94.1104L145.942 90.4982Z" fill="#1B1F21"/>
<path d="M162.153 86.1543L147.563 90.0639L148.551 93.753L153.918 92.3149L158.196 108.279L162.028 107.253L157.75 91.2881L163.142 89.8434L162.153 86.1543Z" fill="#1B1F21"/>
<path d="M168.672 84.4077L164.84 85.4345L170.106 105.088L173.938 104.061L168.672 84.4077Z" fill="#1B1F21"/>
<path d="M176.971 82.184L173.014 83.2442L178.28 102.898L181.916 101.924L178.271 88.321L190.391 99.6527L194.348 98.5924L189.082 78.9387L185.422 79.9194L189.041 93.4225L176.971 82.184Z" fill="#1B1F21"/>
</svg>
