<svg width="416" height="518" viewBox="0 0 416 518" fill="none" xmlns="http://www.w3.org/2000/svg">
<rect width="416" height="518" fill="#1B1F21"/>
<mask id="mask0_192_2375" style="mask-type:alpha" maskUnits="userSpaceOnUse" x="0" y="0" width="416" height="518">
<path d="M0 97.9696C0 43.8625 39.2342 0 87.632 0H328.368C376.766 0 416 43.8625 416 97.9696C416 131.328 401.087 160.793 378.307 178.485C401.087 196.177 416 225.641 416 259C416 292.359 401.087 321.823 378.307 339.515C401.087 357.207 416 386.672 416 420.03C416 474.138 376.766 518 328.368 518H87.632C39.2342 518 0 474.138 0 420.03C0 386.672 14.9132 357.207 37.6926 339.515C14.9132 321.823 0 292.359 0 259C0 225.641 14.9132 196.177 37.6926 178.485C14.9132 160.793 0 131.328 0 97.9696Z" fill="#FCFAF9"/>
</mask>
<g mask="url(#mask0_192_2375)">
<rect width="416" height="518" fill="#1B1F21"/>
<path d="M218.51 -291.014C310.751 -225.045 638.777 142.789 492.261 249.029C304.253 385.353 -35.1984 141.678 76.1305 17.5355C223.528 -146.826 587.54 316.594 466.769 460.71C345.999 604.826 91.3478 540.512 -195.469 171.916" stroke="#434343" stroke-width="15" stroke-linecap="round" stroke-dasharray="43 42"/>
<g opacity="0.62" filter="url(#filter0_f_192_2375)">
<path d="M217.11 113.019L168 134.695L248.802 156.346L217.11 113.019Z" fill="#FE6D44"/>
<path fill-rule="evenodd" clip-rule="evenodd" d="M242.901 151.28L240.996 150.77C240.617 150.668 240.228 150.893 240.126 151.271C240.025 151.65 240.25 152.039 240.628 152.141L242.534 152.651C242.912 152.753 243.301 152.528 243.403 152.149C243.504 151.771 243.28 151.382 242.901 151.28ZM235.279 149.238L231.469 148.217C231.09 148.115 230.701 148.34 230.599 148.719C230.498 149.097 230.723 149.487 231.101 149.588L234.912 150.609C235.291 150.71 235.68 150.486 235.781 150.107C235.883 149.729 235.658 149.339 235.279 149.238ZM225.753 146.685L221.942 145.664C221.563 145.563 221.174 145.787 221.073 146.166C220.971 146.545 221.196 146.934 221.574 147.035L225.385 148.056C225.764 148.158 226.153 147.933 226.255 147.554C226.356 147.176 226.131 146.787 225.753 146.685ZM216.226 144.132L212.415 143.111C212.036 143.01 211.647 143.235 211.546 143.613C211.444 143.992 211.669 144.381 212.048 144.483L215.858 145.504C216.237 145.605 216.626 145.38 216.728 145.002C216.829 144.623 216.604 144.234 216.226 144.132ZM206.699 141.58L202.888 140.559C202.51 140.457 202.12 140.682 202.019 141.061C201.918 141.439 202.142 141.828 202.521 141.93L206.332 142.951C206.71 143.052 207.099 142.828 207.201 142.449C207.302 142.07 207.078 141.681 206.699 141.58ZM197.172 139.027L193.361 138.006C192.983 137.905 192.594 138.129 192.492 138.508C192.391 138.886 192.615 139.276 192.994 139.377L196.805 140.398C197.183 140.5 197.573 140.275 197.674 139.896C197.775 139.518 197.551 139.129 197.172 139.027ZM187.645 136.474L183.835 135.453C183.456 135.352 183.067 135.577 182.965 135.955C182.864 136.334 183.089 136.723 183.467 136.824L187.278 137.846C187.657 137.947 188.046 137.722 188.147 137.344C188.249 136.965 188.024 136.576 187.645 136.474ZM178.118 133.922L176.213 133.411C175.834 133.31 175.445 133.534 175.344 133.913C175.242 134.292 175.467 134.681 175.846 134.782L177.751 135.293C178.13 135.394 178.519 135.17 178.62 134.791C178.722 134.412 178.497 134.023 178.118 133.922Z" fill="#1B1F21"/>
<path d="M215.763 118.948L248.802 156.346L263.074 103.079L215.763 118.948Z" fill="#FE6D44"/>
<path d="M215.763 118.948L248.802 156.346L263.074 103.079L215.763 118.948Z" fill="#FCFAF9" fill-opacity="0.12"/>
<path fill-rule="evenodd" clip-rule="evenodd" d="M247.798 150.898C248.054 150.839 248.257 150.644 248.325 150.39L248.911 148.203C249.013 147.824 248.788 147.435 248.409 147.334C248.031 147.232 247.642 147.457 247.54 147.835L247.302 148.725L246.732 148.062C246.477 147.765 246.029 147.731 245.731 147.987C245.434 148.243 245.4 148.691 245.656 148.988L247.102 150.669C247.273 150.868 247.541 150.956 247.798 150.898ZM249.214 144.331C249.593 144.432 249.982 144.208 250.083 143.829L251.255 139.455C251.357 139.077 251.132 138.688 250.753 138.586C250.375 138.485 249.985 138.709 249.884 139.088L248.712 143.462C248.611 143.84 248.835 144.23 249.214 144.331ZM251.558 135.584C251.936 135.685 252.326 135.46 252.427 135.082L253.599 130.708C253.7 130.329 253.476 129.94 253.097 129.839C252.719 129.737 252.329 129.962 252.228 130.341L251.056 134.714C250.954 135.093 251.179 135.482 251.558 135.584ZM253.902 126.836C254.28 126.938 254.669 126.713 254.771 126.334L255.943 121.96C256.044 121.582 255.82 121.193 255.441 121.091C255.062 120.99 254.673 121.214 254.572 121.593L253.4 125.967C253.298 126.345 253.523 126.735 253.902 126.836ZM256.246 118.089C256.624 118.19 257.013 117.965 257.115 117.587L257.701 115.4C257.802 115.021 257.578 114.632 257.199 114.531C256.82 114.429 256.431 114.654 256.33 115.032L255.744 117.219C255.642 117.598 255.867 117.987 256.246 118.089ZM243.766 145.701C244.063 145.446 244.097 144.998 243.841 144.7L240.95 141.339C240.694 141.042 240.246 141.008 239.949 141.263C239.652 141.519 239.618 141.967 239.874 142.264L242.765 145.626C243.02 145.923 243.468 145.957 243.766 145.701ZM237.983 138.978C238.28 138.722 238.314 138.274 238.059 137.977L235.167 134.615C234.912 134.318 234.464 134.284 234.166 134.54C233.869 134.795 233.835 135.244 234.091 135.541L236.982 138.903C237.238 139.2 237.686 139.233 237.983 138.978ZM232.201 132.254C232.498 131.999 232.532 131.551 232.276 131.253L229.385 127.892C229.129 127.594 228.681 127.561 228.384 127.816C228.087 128.072 228.053 128.52 228.309 128.817L231.2 132.179C231.455 132.476 231.904 132.51 232.201 132.254ZM226.418 125.531C226.715 125.275 226.749 124.827 226.494 124.53L225.048 122.849C224.792 122.552 224.344 122.518 224.047 122.774C223.75 123.029 223.716 123.477 223.972 123.774L225.417 125.455C225.673 125.753 226.121 125.786 226.418 125.531Z" fill="#1B1F21"/>
<path d="M215.312 118.827L168 134.695L182.273 81.4289L215.312 118.827Z" fill="#FE6D44"/>
<path d="M215.312 118.827L168 134.695L182.273 81.4289L215.312 118.827Z" fill="#FCFAF9" fill-opacity="0.12"/>
<path fill-rule="evenodd" clip-rule="evenodd" d="M183.633 86.8226C184.012 86.9235 184.237 87.3123 184.136 87.6911L183.572 89.8076C183.471 90.1864 183.082 90.4116 182.704 90.3107C182.325 90.2098 182.1 89.8209 182.2 89.4421L182.764 87.3257C182.865 86.9469 183.254 86.7217 183.633 86.8226ZM181.941 93.1719C182.32 93.2729 182.545 93.6617 182.444 94.0405L181.317 98.2734C181.216 98.6522 180.827 98.8774 180.448 98.7765C180.069 98.6756 179.844 98.2868 179.945 97.908L181.073 93.6751C181.174 93.2963 181.563 93.071 181.941 93.1719ZM179.686 101.638C180.065 101.739 180.29 102.128 180.189 102.506L179.061 106.739C178.96 107.118 178.571 107.343 178.193 107.242C177.814 107.141 177.589 106.753 177.69 106.374L178.817 102.141C178.918 101.762 179.307 101.537 179.686 101.638ZM177.43 110.104C177.809 110.205 178.034 110.593 177.934 110.972L176.806 115.205C176.705 115.584 176.316 115.809 175.937 115.708C175.558 115.607 175.333 115.218 175.434 114.84L176.562 110.607C176.663 110.228 177.052 110.003 177.43 110.104ZM175.175 118.569C175.554 118.67 175.779 119.059 175.678 119.438L174.55 123.671C174.449 124.05 174.061 124.275 173.682 124.174C173.303 124.073 173.078 123.684 173.179 123.305L174.306 119.073C174.407 118.694 174.796 118.469 175.175 118.569ZM172.919 127.035C173.298 127.136 173.524 127.525 173.423 127.904L173.204 128.724L174.031 128.435C174.401 128.305 174.806 128.5 174.935 128.87C175.065 129.24 174.87 129.645 174.5 129.775L172.408 130.507C172.159 130.594 171.884 130.537 171.691 130.358C171.498 130.18 171.419 129.909 171.487 129.655L172.051 127.538C172.152 127.16 172.541 126.934 172.919 127.035ZM177.78 127.874C177.651 127.504 177.846 127.099 178.215 126.969L182.4 125.503C182.77 125.374 183.175 125.569 183.305 125.939C183.434 126.308 183.239 126.713 182.869 126.843L178.685 128.309C178.315 128.438 177.91 128.243 177.78 127.874ZM186.15 124.942C186.02 124.572 186.215 124.167 186.585 124.037L190.77 122.572C191.14 122.442 191.545 122.637 191.674 123.007C191.804 123.377 191.609 123.782 191.239 123.911L187.054 125.377C186.684 125.507 186.279 125.312 186.15 124.942ZM194.519 122.01C194.39 121.64 194.585 121.236 194.955 121.106L199.139 119.64C199.509 119.511 199.914 119.705 200.044 120.075C200.173 120.445 199.979 120.85 199.609 120.98L195.424 122.446C195.054 122.575 194.649 122.38 194.519 122.01ZM202.889 119.079C202.759 118.709 202.954 118.304 203.324 118.174L205.417 117.442C205.786 117.312 206.191 117.507 206.321 117.877C206.451 118.247 206.256 118.652 205.886 118.781L203.793 119.514C203.423 119.644 203.018 119.449 202.889 119.079Z" fill="#1B1F21"/>
<path d="M213.965 124.756L182.272 81.4287L263.075 103.08L213.965 124.756Z" fill="#FE6D44"/>
<path d="M213.965 124.756L182.272 81.4287L263.075 103.08L213.965 124.756Z" fill="#FCFAF9" fill-opacity="0.25"/>
<path fill-rule="evenodd" clip-rule="evenodd" d="M259.906 101.011C260.086 101.419 259.901 101.895 259.494 102.075L257.722 102.856C257.315 103.036 256.839 102.852 256.659 102.444C256.479 102.037 256.664 101.561 257.071 101.381L258.843 100.599C259.25 100.419 259.726 100.603 259.906 101.011ZM186.05 81.2214C186.41 80.9584 186.914 81.0367 187.177 81.3962L188.321 82.9591C188.584 83.3186 188.505 83.8232 188.146 84.0862C187.786 84.3492 187.282 84.2709 187.019 83.9114L185.875 82.3485C185.612 81.989 185.691 81.4844 186.05 81.2214ZM254.319 103.477C254.499 103.884 254.314 104.361 253.907 104.54L250.364 106.104C249.957 106.284 249.48 106.1 249.301 105.692C249.121 105.285 249.305 104.808 249.713 104.629L253.256 103.065C253.663 102.885 254.139 103.069 254.319 103.477ZM189.656 86.1504C190.015 85.8874 190.52 85.9657 190.783 86.3252L193.069 89.4509C193.332 89.8105 193.254 90.3151 192.894 90.5781C192.535 90.8411 192.03 90.7628 191.767 90.4033L189.481 87.2776C189.218 86.918 189.296 86.4134 189.656 86.1504ZM246.961 106.725C247.141 107.132 246.956 107.608 246.549 107.788L243.006 109.352C242.598 109.532 242.122 109.347 241.942 108.94C241.762 108.532 241.947 108.056 242.354 107.876L245.897 106.313C246.305 106.133 246.781 106.317 246.961 106.725ZM194.404 92.6423C194.764 92.3793 195.268 92.4576 195.531 92.8171L197.818 95.9428C198.081 96.3023 198.002 96.807 197.643 97.0699C197.283 97.3329 196.779 97.2547 196.516 96.8951L194.229 93.7694C193.966 93.4099 194.045 92.9053 194.404 92.6423ZM239.602 109.973C239.782 110.38 239.598 110.856 239.19 111.036L235.647 112.6C235.24 112.78 234.764 112.595 234.584 112.188C234.404 111.78 234.588 111.304 234.996 111.124L238.539 109.56C238.946 109.381 239.423 109.565 239.602 109.973ZM199.153 99.1341C199.512 98.8712 200.017 98.9494 200.28 99.3089L202.566 102.435C202.829 102.794 202.751 103.299 202.392 103.562C202.032 103.825 201.527 103.747 201.264 103.387L198.978 100.261C198.715 99.9018 198.793 99.3971 199.153 99.1341ZM232.244 113.22C232.424 113.628 232.239 114.104 231.832 114.284L228.289 115.848C227.881 116.028 227.405 115.843 227.225 115.436C227.046 115.028 227.23 114.552 227.638 114.372L231.181 112.808C231.588 112.628 232.064 112.813 232.244 113.22ZM203.901 105.626C204.261 105.363 204.766 105.441 205.029 105.801L207.315 108.927C207.578 109.286 207.5 109.791 207.14 110.054C206.781 110.317 206.276 110.238 206.013 109.879L203.727 106.753C203.464 106.394 203.542 105.889 203.901 105.626ZM224.886 116.468C225.066 116.876 224.881 117.352 224.474 117.532L220.931 119.096C220.523 119.275 220.047 119.091 219.867 118.683C219.687 118.276 219.872 117.8 220.279 117.62L223.822 116.056C224.23 115.876 224.706 116.061 224.886 116.468ZM208.65 112.118C209.01 111.855 209.514 111.933 209.777 112.293L212.064 115.418C212.327 115.778 212.248 116.283 211.889 116.546C211.529 116.809 211.025 116.73 210.762 116.371L208.475 113.245C208.212 112.886 208.291 112.381 208.65 112.118ZM213.399 118.61C213.758 118.347 214.263 118.425 214.526 118.785L215.286 119.824L216.464 119.304C216.871 119.124 217.348 119.309 217.527 119.716C217.707 120.124 217.523 120.6 217.115 120.78L215.344 121.561C214.997 121.714 214.591 121.606 214.367 121.3L213.224 119.737C212.961 119.377 213.039 118.873 213.399 118.61Z" fill="#1B1F21"/>
</g>
</g>
<defs>
<filter id="filter0_f_192_2375" x="160" y="73.0658" width="111.075" height="91.2804" filterUnits="userSpaceOnUse" color-interpolation-filters="sRGB">
<feFlood flood-opacity="0" result="BackgroundImageFix"/>
<feBlend mode="normal" in="SourceGraphic" in2="BackgroundImageFix" result="shape"/>
<feGaussianBlur stdDeviation="4" result="effect1_foregroundBlur_192_2375"/>
</filter>
</defs>
</svg>
