<svg width="288" height="498" viewBox="0 0 288 498" fill="none" xmlns="http://www.w3.org/2000/svg">
<mask id="mask0_177_3441" style="mask-type:alpha" maskUnits="userSpaceOnUse" x="0" y="0" width="288" height="498">
<path d="M0 78.411C0 35.1058 35.1058 0 78.411 0C121.716 0 156.822 35.1058 156.822 78.411V419.589C156.822 462.894 121.716 498 78.411 498C35.1058 498 0 462.894 0 419.589V78.411Z" fill="#1B1F21"/>
<path d="M131.178 78.411C131.178 35.1058 166.284 0 209.589 0C252.894 0 288 35.1058 288 78.411V419.589C288 462.894 252.894 498 209.589 498C166.284 498 131.178 462.894 131.178 419.589V78.411Z" fill="#1B1F21"/>
</mask>
<g mask="url(#mask0_177_3441)">
<rect width="288" height="516" fill="#1B1F21"/>
<path fill-rule="evenodd" clip-rule="evenodd" d="M285.158 38.5554C279.425 29.757 273.457 20.9852 267.323 12.2951C265.465 9.66421 266.273 5.87317 269.126 3.82762C271.979 1.78207 275.798 2.25661 277.655 4.88754C283.861 13.6776 289.903 22.5594 295.715 31.4772C297.473 34.1764 296.536 37.949 293.621 39.9036C290.706 41.8582 286.917 41.2546 285.158 38.5554ZM257.604 -11.9423C254.806 -9.82157 250.965 -10.1863 249.026 -12.7569C242.595 -21.2828 236.064 -29.6691 229.5 -37.8593C227.487 -40.3721 228.08 -44.1837 230.825 -46.3728C233.571 -48.5619 237.428 -48.2995 239.442 -45.7868C246.067 -37.5188 252.663 -29.0501 259.16 -20.437C261.099 -17.8663 260.403 -14.0632 257.604 -11.9423ZM303.959 56.5083C306.942 54.6636 310.691 55.4182 312.331 58.1936C317.92 67.6502 323.177 77.0916 328.018 86.4518C329.501 89.3195 328.219 93.0205 325.155 94.7184C322.09 96.4162 318.404 95.4679 316.92 92.6003C312.183 83.4394 307.026 74.1757 301.528 64.8738C299.887 62.0984 300.976 58.353 303.959 56.5083ZM218.403 -61.4474C215.709 -59.1963 211.837 -59.3636 209.756 -61.8209C202.73 -70.1155 195.75 -78.1182 188.9 -85.7597C186.75 -88.1583 187.147 -91.9783 189.787 -94.2919C192.426 -96.6056 196.309 -96.5367 198.459 -94.1381C205.376 -86.4225 212.422 -78.3443 219.513 -69.9728C221.594 -67.5155 221.097 -63.6985 218.403 -61.4474ZM333.558 112.404C336.716 110.905 340.307 112.103 341.578 115.08C346.038 125.527 349.851 135.801 352.882 145.802C353.826 148.915 351.94 152.403 348.669 153.592C345.397 154.78 341.981 153.22 341.037 150.107C338.139 140.548 334.471 130.65 330.14 120.507C328.869 117.53 330.399 113.902 333.558 112.404ZM176.494 -108.695C173.915 -106.315 170.022 -106.278 167.8 -108.612C159.987 -116.815 152.5 -124.381 145.489 -131.19C143.175 -133.436 143.325 -137.253 145.822 -139.714C148.32 -142.176 152.22 -142.35 154.534 -140.103C161.655 -133.188 169.24 -125.522 177.14 -117.228C179.362 -114.894 179.073 -111.074 176.494 -108.695ZM131.367 -153.041C129.012 -150.45 125.11 -150.049 122.651 -152.145C118.155 -155.979 114.107 -159.213 110.576 -161.803C107.964 -163.718 107.617 -167.482 109.8 -170.209C111.984 -172.936 115.872 -173.593 118.484 -171.678C122.284 -168.89 126.544 -165.481 131.181 -161.527C133.639 -159.431 133.723 -155.632 131.367 -153.041ZM353.018 172.968C356.398 172.295 359.468 174.395 359.874 177.659C361.389 189.822 361.33 201.471 359.292 212.318C358.669 215.634 355.451 218.052 352.104 217.718C348.757 217.385 346.548 214.427 347.171 211.111C348.927 201.766 349.038 191.378 347.633 180.097C347.227 176.833 349.638 173.642 353.018 172.968ZM343.748 236.798C346.352 238.724 346.686 242.489 344.493 245.21C340.582 250.061 335.952 254.476 330.58 258.415C325.527 262.119 320.329 265.466 315.007 268.47C314.061 269.004 313.052 269.285 312.066 269.332C315.804 278.211 319.116 287.038 321.95 295.748C322.956 298.838 321.134 302.355 317.881 303.602C314.629 304.849 311.177 303.355 310.171 300.265C306.751 289.752 302.59 279.01 297.778 268.17C296.466 265.213 297.949 261.57 301.09 260.032C303.195 259.002 305.511 259.179 307.205 260.297C307.78 259.437 308.569 258.688 309.54 258.139C314.391 255.401 319.128 252.351 323.735 248.974C328.174 245.719 331.926 242.128 335.062 238.237C337.254 235.517 341.143 234.873 343.748 236.798ZM267.468 199.963C270.395 198.027 274.177 198.657 275.916 201.37C282.32 211.363 288.33 221.502 293.871 231.688C295.413 234.522 294.203 238.241 291.167 239.993C288.132 241.746 284.421 240.87 282.879 238.035C277.466 228.085 271.587 218.166 265.316 208.38C263.577 205.667 264.541 201.899 267.468 199.963ZM254.813 181.579C251.995 183.674 248.162 183.271 246.251 180.679C239.42 171.414 232.281 162.374 224.905 153.657C222.825 151.199 223.323 147.382 226.018 145.132C228.714 142.882 232.585 143.051 234.665 145.509C242.197 154.411 249.484 163.638 256.455 173.093C258.366 175.685 257.631 179.485 254.813 181.579ZM211.046 128.613C208.49 131.016 204.595 131.092 202.346 128.783C194.164 120.383 185.803 112.449 177.344 105.09C174.907 102.971 174.86 99.1675 177.238 96.5959C179.615 94.0243 183.518 93.6579 185.955 95.7776C194.653 103.344 203.229 111.483 211.603 120.081C213.852 122.39 213.602 126.21 211.046 128.613ZM159.635 82.6813C157.495 85.4392 153.614 86.1584 150.966 84.2876C141.151 77.3522 131.345 71.3359 121.672 66.3874C118.764 64.8995 117.841 61.2759 119.61 58.294C121.38 55.3119 125.173 54.1007 128.081 55.5886C138.289 60.8104 148.541 67.1098 158.717 74.3003C161.365 76.1711 161.776 79.9234 159.635 82.6813ZM323.51 325.521C326.866 324.69 330.049 326.633 330.619 329.86C332.874 342.627 333.835 354.975 333.265 366.635C333.102 369.965 330.213 372.762 326.812 372.882C323.411 373.002 320.787 370.399 320.95 367.069C321.47 356.447 320.602 344.974 318.464 332.87C317.894 329.642 320.153 326.352 323.51 325.521ZM286.681 274.886C287.414 278.068 285.314 281.45 281.99 282.438C270.446 285.87 258.592 288.031 246.59 289.07C243.186 289.365 240.413 286.913 240.397 283.593C240.381 280.274 243.128 277.344 246.532 277.049C257.738 276.079 268.716 274.069 279.332 270.913C282.657 269.924 285.947 271.703 286.681 274.886ZM98.4299 49.8698C97.2936 53.0934 93.7708 55.0214 90.5614 54.1761C78.6751 51.0455 67.387 49.9973 56.8989 51.2016C53.4963 51.5924 50.645 49.2261 50.5304 45.9166C50.4158 42.607 53.0812 39.6073 56.4839 39.2166C68.8396 37.7978 81.6814 39.0798 94.6763 42.5024C97.8856 43.3477 99.5662 46.6462 98.4299 49.8698ZM321.878 395.845C324.974 396.974 326.334 400.431 324.917 403.566C322.106 409.787 318.552 415.602 314.194 420.918C309.987 426.05 305.556 430.857 300.907 435.33C298.379 437.761 294.481 437.886 292.201 435.607C289.92 433.328 290.12 429.51 292.648 427.078C296.892 422.995 300.957 418.587 304.833 413.859C308.394 409.515 311.342 404.712 313.707 399.48C315.124 396.344 318.783 394.717 321.878 395.845ZM219.222 283.587C218.668 286.909 215.495 289.387 212.136 289.122C200.692 288.218 189.234 286.442 177.893 283.909C174.644 283.183 172.835 279.958 173.851 276.705C174.869 273.453 178.327 271.404 181.576 272.13C192.415 274.551 203.312 276.237 214.143 277.092C217.502 277.357 219.776 280.265 219.222 283.587ZM27.9999 54.4837C29.8535 57.1173 29.0411 60.9077 26.1854 62.9498C21.7163 66.1456 17.415 70.0364 13.3204 74.6968C9.62272 78.9054 6.69738 83.284 4.46791 87.7946C2.93934 90.8873 -0.765941 92.3878 -3.80803 91.1461C-6.85012 89.9045 -8.07706 86.3908 -6.54851 83.2982C-3.78477 77.7066 -0.191043 72.3497 4.26309 67.2802C9.00837 61.8792 14.0883 57.2632 19.4729 53.4127C22.3287 51.3706 26.1463 51.8501 27.9999 54.4837ZM153.979 270.97C152.595 274.118 148.952 275.783 145.841 274.689C135.199 270.946 124.762 266.594 114.644 261.732C111.695 260.315 110.682 256.721 112.383 253.705C114.083 250.689 117.853 249.392 120.802 250.81C130.564 255.5 140.618 259.691 150.85 263.29C153.961 264.384 155.362 267.822 153.979 270.97ZM272.952 449.967C274.447 452.828 273.179 456.533 270.12 458.242C258.804 464.564 246.68 469.343 233.829 472.53C230.473 473.362 227.289 471.421 226.718 468.194C226.147 464.967 228.405 461.676 231.761 460.844C243.486 457.937 254.48 453.594 264.707 447.881C267.765 446.172 271.457 447.106 272.952 449.967ZM94.5012 243.948C92.523 246.813 88.6732 247.756 85.9022 246.054C76.2788 240.141 67.0946 233.788 58.4724 227.096C55.9162 225.112 55.667 221.333 57.9158 218.655C60.1646 215.978 64.0597 215.415 66.6159 217.399C74.9194 223.844 83.7759 229.971 93.0656 235.679C95.8366 237.381 96.4793 241.083 94.5012 243.948ZM-7.65842 111.824C-4.2601 111.345 -1.33851 113.63 -1.1329 116.928C-0.538669 126.46 2.12721 136.463 6.69007 146.678C8.00925 149.631 6.53432 153.277 3.39575 154.821C0.257146 156.365 -3.35659 155.223 -4.67576 152.269C-9.65748 141.116 -12.7443 129.811 -13.4394 118.663C-13.645 115.365 -11.0568 112.303 -7.65842 111.824ZM42.723 205.397C40.2051 207.839 36.3063 207.98 34.0147 205.712C25.8325 197.614 18.4826 189.206 12.1458 180.628C10.2325 178.038 10.9643 174.239 13.7804 172.141C16.5965 170.044 20.4304 170.444 22.3437 173.034C28.3207 181.125 35.3012 189.119 43.1326 196.87C45.4242 199.138 45.2408 202.956 42.723 205.397ZM203.405 471.102C203.178 474.435 200.24 477.182 196.843 477.238C184.943 477.437 172.596 476.473 159.845 474.329C156.547 473.775 154.559 470.662 155.404 467.375C156.25 464.089 159.609 461.875 162.907 462.429C174.992 464.461 186.589 465.357 197.666 465.172C201.063 465.115 203.632 467.77 203.405 471.102ZM133.311 461.962C132.028 465.144 128.431 466.918 125.278 465.925C114.341 462.481 103.15 458.244 91.7249 453.2C88.7249 451.876 87.5979 448.324 89.2075 445.265C90.8172 442.207 94.5541 440.802 97.5541 442.126C108.626 447.013 119.423 451.098 129.924 454.404C133.078 455.397 134.594 458.781 133.311 461.962ZM69.1792 435.316C67.3308 438.256 63.5147 439.368 60.6555 437.8C50.708 432.342 40.602 426.304 30.349 419.676C27.6212 417.913 27.0613 414.191 29.0984 411.363C31.1355 408.535 34.9982 407.672 37.726 409.436C47.7705 415.929 57.6487 421.83 67.3491 427.152C70.2082 428.72 71.0276 432.376 69.1792 435.316ZM10.8629 398.768C8.68019 401.496 4.79269 402.154 2.17991 400.239C-6.93817 393.557 -16.1611 386.423 -25.4815 378.83C-27.9881 376.788 -28.1524 372.998 -25.8484 370.364C-23.5445 367.73 -19.6448 367.25 -17.1383 369.292C-7.95421 376.774 1.12254 383.794 10.0843 390.362C12.6971 392.277 13.0457 396.041 10.8629 398.768ZM-42.6347 356.057C-45.0363 358.607 -48.9395 358.936 -51.3526 356.791C-59.8086 349.275 -68.3374 341.39 -76.934 333.131C-79.2598 330.897 -79.1298 327.081 -76.6435 324.608C-74.1573 322.136 -70.2563 321.943 -67.9305 324.178C-59.4303 332.344 -51.0035 340.134 -42.6553 347.555C-40.2422 349.699 -40.233 353.506 -42.6347 356.057ZM-92.3177 309.021C-94.8744 311.423 -98.7696 311.499 -101.018 309.189C-108.886 301.105 -116.806 292.713 -124.774 284.008C-126.949 281.632 -126.589 277.811 -123.97 275.475C-121.351 273.139 -117.465 273.171 -115.289 275.547C-107.393 284.174 -99.5485 292.486 -91.7588 300.489C-89.5107 302.799 -89.7609 306.619 -92.3177 309.021ZM-138.612 259.026C-141.285 261.303 -145.161 261.175 -147.27 258.741C-154.682 250.191 -162.131 241.372 -169.614 232.284C-171.661 229.798 -171.115 225.983 -168.394 223.764C-165.674 221.544 -161.809 221.76 -159.762 224.246C-152.335 233.267 -144.944 242.016 -137.593 250.497C-135.484 252.931 -135.94 256.749 -138.612 259.026ZM-182.205 206.59C-184.967 208.758 -188.82 208.463 -190.81 205.931C-194.374 201.397 -197.945 196.803 -201.523 192.147C-203.485 189.593 -202.82 185.787 -200.037 183.646C-197.255 181.504 -193.409 181.837 -191.447 184.39C-187.893 189.016 -184.346 193.579 -180.806 198.082C-178.816 200.613 -179.442 204.423 -182.205 206.59Z" fill="#434343"/>
<g opacity="0.62" filter="url(#filter0_f_177_3441)">
<path d="M144.477 148.845L102 167.781L171.889 186.695L144.477 148.845Z" fill="#FE6D44"/>
<path fill-rule="evenodd" clip-rule="evenodd" d="M166.785 182.27L165.137 181.824C164.81 181.735 164.473 181.932 164.385 182.262C164.298 182.593 164.492 182.933 164.819 183.022L166.467 183.468C166.795 183.557 167.132 183.36 167.219 183.029C167.307 182.699 167.113 182.359 166.785 182.27ZM160.193 180.486L156.897 179.594C156.569 179.505 156.233 179.702 156.145 180.032C156.057 180.363 156.252 180.703 156.579 180.792L159.875 181.684C160.203 181.773 160.539 181.576 160.627 181.245C160.715 180.915 160.521 180.575 160.193 180.486ZM151.953 178.256L148.657 177.364C148.329 177.275 147.993 177.472 147.905 177.802C147.817 178.133 148.012 178.473 148.339 178.562L151.635 179.454C151.963 179.542 152.299 179.346 152.387 179.015C152.475 178.685 152.28 178.345 151.953 178.256ZM143.713 176.026L140.417 175.134C140.089 175.045 139.753 175.242 139.665 175.572C139.577 175.903 139.771 176.243 140.099 176.332L143.395 177.224C143.722 177.312 144.059 177.116 144.147 176.785C144.235 176.455 144.04 176.115 143.713 176.026ZM135.473 173.796L132.177 172.904C131.849 172.815 131.512 173.012 131.425 173.342C131.337 173.673 131.531 174.013 131.859 174.102L135.155 174.994C135.482 175.082 135.819 174.886 135.907 174.555C135.994 174.225 135.8 173.885 135.473 173.796ZM127.232 171.566L123.936 170.674C123.609 170.585 123.272 170.782 123.185 171.112C123.097 171.443 123.291 171.783 123.619 171.872L126.915 172.764C127.242 172.852 127.579 172.656 127.667 172.325C127.754 171.995 127.56 171.655 127.232 171.566ZM118.992 169.336L115.696 168.444C115.369 168.355 115.032 168.552 114.944 168.882C114.857 169.213 115.051 169.553 115.378 169.642L118.675 170.534C119.002 170.622 119.339 170.426 119.426 170.095C119.514 169.765 119.32 169.425 118.992 169.336ZM110.752 167.106L109.104 166.66C108.777 166.571 108.44 166.768 108.352 167.098C108.264 167.429 108.459 167.769 108.786 167.858L110.434 168.304C110.762 168.392 111.098 168.196 111.186 167.865C111.274 167.535 111.08 167.195 110.752 167.106Z" fill="#1B1F21"/>
<path d="M143.312 154.026L171.889 186.696L184.234 140.163L143.312 154.026Z" fill="#FE6D44"/>
<path d="M143.312 154.026L171.889 186.696L184.234 140.163L143.312 154.026Z" fill="#FCFAF9" fill-opacity="0.12"/>
<path fill-rule="evenodd" clip-rule="evenodd" d="M171.021 181.936C171.243 181.885 171.418 181.714 171.477 181.492L171.984 179.581C172.072 179.251 171.877 178.911 171.55 178.822C171.222 178.733 170.886 178.93 170.798 179.26L170.592 180.037L170.099 179.459C169.878 179.199 169.491 179.17 169.234 179.393C168.977 179.616 168.947 180.008 169.168 180.267L170.419 181.736C170.567 181.91 170.799 181.987 171.021 181.936ZM172.246 176.199C172.573 176.288 172.91 176.091 172.998 175.761L174.011 171.94C174.099 171.609 173.905 171.269 173.577 171.18C173.25 171.092 172.913 171.288 172.825 171.619L171.812 175.44C171.724 175.77 171.918 176.11 172.246 176.199ZM174.273 168.557C174.601 168.646 174.937 168.45 175.025 168.119L176.039 164.298C176.126 163.967 175.932 163.627 175.605 163.539C175.277 163.45 174.94 163.646 174.853 163.977L173.839 167.798C173.751 168.129 173.946 168.469 174.273 168.557ZM176.3 160.916C176.628 161.004 176.965 160.808 177.052 160.477L178.066 156.656C178.154 156.325 177.959 155.986 177.632 155.897C177.304 155.808 176.968 156.005 176.88 156.335L175.866 160.156C175.779 160.487 175.973 160.827 176.3 160.916ZM178.328 153.274C178.655 153.362 178.992 153.166 179.08 152.835L179.586 150.925C179.674 150.594 179.48 150.254 179.152 150.166C178.825 150.077 178.488 150.273 178.401 150.604L177.894 152.514C177.806 152.845 178 153.185 178.328 153.274ZM167.533 177.396C167.79 177.173 167.82 176.781 167.599 176.522L165.098 173.585C164.877 173.325 164.489 173.296 164.232 173.519C163.975 173.742 163.946 174.134 164.167 174.394L166.668 177.33C166.889 177.59 167.276 177.619 167.533 177.396ZM162.532 171.523C162.789 171.299 162.818 170.908 162.597 170.648L160.096 167.711C159.875 167.452 159.488 167.422 159.231 167.645C158.974 167.869 158.944 168.26 159.165 168.52L161.666 171.457C161.887 171.716 162.275 171.746 162.532 171.523ZM157.53 165.649C157.787 165.426 157.817 165.034 157.596 164.774L155.095 161.838C154.874 161.578 154.486 161.549 154.229 161.772C153.972 161.995 153.943 162.387 154.164 162.646L156.665 165.583C156.886 165.843 157.273 165.872 157.53 165.649ZM152.529 159.775C152.786 159.552 152.815 159.16 152.594 158.901L151.344 157.432C151.123 157.173 150.735 157.143 150.478 157.367C150.221 157.59 150.192 157.981 150.413 158.241L151.663 159.709C151.884 159.969 152.272 159.998 152.529 159.775Z" fill="black"/>
<path d="M142.922 153.919L102 167.781L114.345 121.248L142.922 153.919Z" fill="#FE6D44"/>
<path d="M142.922 153.919L102 167.781L114.345 121.248L142.922 153.919Z" fill="#FCFAF9" fill-opacity="0.12"/>
<path fill-rule="evenodd" clip-rule="evenodd" d="M115.521 125.961C115.849 126.049 116.044 126.389 115.956 126.72L115.469 128.569C115.381 128.9 115.045 129.097 114.717 129.008C114.39 128.92 114.195 128.581 114.282 128.25L114.77 126.401C114.857 126.07 115.193 125.873 115.521 125.961ZM114.058 131.508C114.386 131.596 114.58 131.936 114.493 132.267L113.518 135.965C113.43 136.295 113.094 136.492 112.766 136.404C112.439 136.316 112.244 135.976 112.331 135.645L113.307 131.947C113.394 131.617 113.73 131.42 114.058 131.508ZM112.107 138.904C112.435 138.992 112.63 139.332 112.542 139.662L111.567 143.36C111.48 143.691 111.143 143.888 110.816 143.8C110.488 143.712 110.293 143.372 110.38 143.041L111.356 139.343C111.443 139.012 111.779 138.815 112.107 138.904ZM110.156 146.299C110.484 146.387 110.679 146.727 110.591 147.058L109.616 150.756C109.529 151.087 109.192 151.284 108.865 151.195C108.537 151.107 108.342 150.768 108.43 150.437L109.405 146.739C109.492 146.408 109.829 146.211 110.156 146.299ZM108.205 153.695C108.533 153.783 108.728 154.123 108.641 154.454L107.665 158.152C107.578 158.482 107.242 158.679 106.914 158.591C106.586 158.503 106.391 158.163 106.479 157.832L107.454 154.135C107.541 153.804 107.878 153.607 108.205 153.695ZM106.255 161.091C106.582 161.179 106.777 161.519 106.69 161.849L106.501 162.566L107.216 162.313C107.536 162.2 107.886 162.37 107.998 162.694C108.11 163.017 107.942 163.37 107.622 163.484L105.812 164.124C105.597 164.2 105.359 164.15 105.192 163.994C105.025 163.838 104.957 163.601 105.016 163.379L105.503 161.53C105.591 161.199 105.927 161.003 106.255 161.091ZM110.459 161.823C110.347 161.5 110.515 161.146 110.835 161.033L114.455 159.752C114.775 159.639 115.125 159.809 115.237 160.133C115.349 160.456 115.181 160.809 114.861 160.923L111.241 162.203C110.921 162.316 110.571 162.146 110.459 161.823ZM117.698 159.262C117.586 158.939 117.755 158.585 118.074 158.472L121.694 157.191C122.014 157.078 122.364 157.248 122.476 157.572C122.588 157.895 122.42 158.249 122.1 158.362L118.48 159.642C118.16 159.755 117.81 159.585 117.698 159.262ZM124.937 156.701C124.825 156.378 124.994 156.024 125.314 155.911L128.933 154.63C129.253 154.517 129.604 154.687 129.716 155.011C129.828 155.334 129.659 155.688 129.339 155.801L125.72 157.081C125.4 157.194 125.049 157.024 124.937 156.701ZM132.176 154.14C132.064 153.817 132.233 153.463 132.553 153.35L134.363 152.71C134.683 152.596 135.033 152.767 135.145 153.09C135.257 153.413 135.089 153.767 134.769 153.88L132.959 154.52C132.639 154.633 132.288 154.463 132.176 154.14Z" fill="black"/>
<path d="M141.756 159.099L114.344 121.249L184.233 140.163L141.756 159.099Z" fill="#FE6D44"/>
<path d="M141.756 159.099L114.344 121.249L184.233 140.163L141.756 159.099Z" fill="#FCFAF9" fill-opacity="0.25"/>
<path fill-rule="evenodd" clip-rule="evenodd" d="M181.494 138.355C181.649 138.711 181.49 139.127 181.137 139.284L179.605 139.967C179.252 140.124 178.841 139.963 178.685 139.607C178.529 139.251 178.689 138.835 179.042 138.678L180.574 137.995C180.926 137.838 181.338 137.999 181.494 138.355ZM117.613 121.067C117.924 120.837 118.36 120.906 118.588 121.22L119.576 122.585C119.804 122.899 119.736 123.34 119.425 123.57C119.114 123.799 118.678 123.731 118.45 123.417L117.461 122.052C117.234 121.738 117.302 121.297 117.613 121.067ZM176.661 140.509C176.817 140.865 176.657 141.281 176.305 141.438L173.24 142.804C172.888 142.962 172.476 142.8 172.321 142.444C172.165 142.088 172.325 141.672 172.677 141.515L175.741 140.149C176.094 139.992 176.506 140.153 176.661 140.509ZM120.731 125.373C121.042 125.143 121.479 125.212 121.706 125.526L123.684 128.256C123.911 128.57 123.843 129.011 123.532 129.241C123.222 129.471 122.785 129.402 122.558 129.088L120.58 126.358C120.353 126.044 120.42 125.603 120.731 125.373ZM170.297 143.346C170.452 143.702 170.293 144.118 169.94 144.276L166.876 145.642C166.523 145.799 166.112 145.638 165.956 145.282C165.8 144.926 165.96 144.51 166.312 144.353L169.377 142.986C169.729 142.829 170.141 142.99 170.297 143.346ZM124.838 131.044C125.149 130.814 125.586 130.883 125.813 131.197L127.791 133.927C128.018 134.242 127.951 134.682 127.64 134.912C127.329 135.142 126.892 135.074 126.665 134.759L124.687 132.029C124.46 131.715 124.527 131.274 124.838 131.044ZM163.932 146.184C164.088 146.54 163.928 146.956 163.576 147.113L160.511 148.479C160.159 148.636 159.747 148.475 159.591 148.119C159.436 147.763 159.595 147.347 159.948 147.19L163.012 145.824C163.365 145.667 163.777 145.828 163.932 146.184ZM128.946 136.715C129.257 136.486 129.693 136.554 129.921 136.868L131.898 139.599C132.126 139.913 132.058 140.354 131.747 140.583C131.436 140.813 131 140.745 130.772 140.431L128.795 137.7C128.567 137.386 128.635 136.945 128.946 136.715ZM157.568 149.021C157.723 149.377 157.564 149.793 157.211 149.95L154.147 151.316C153.794 151.473 153.382 151.312 153.227 150.956C153.071 150.6 153.231 150.184 153.583 150.027L156.648 148.661C157 148.504 157.412 148.665 157.568 149.021ZM133.053 142.387C133.364 142.157 133.8 142.225 134.028 142.539L136.006 145.27C136.233 145.584 136.165 146.025 135.854 146.255C135.543 146.484 135.107 146.416 134.879 146.102L132.902 143.371C132.674 143.057 132.742 142.616 133.053 142.387ZM151.203 151.858C151.359 152.214 151.199 152.63 150.847 152.787L147.782 154.153C147.43 154.311 147.018 154.149 146.862 153.793C146.707 153.437 146.866 153.021 147.219 152.864L150.283 151.498C150.636 151.341 151.048 151.502 151.203 151.858ZM137.16 148.058C137.471 147.828 137.908 147.897 138.135 148.211L140.113 150.941C140.34 151.255 140.273 151.696 139.962 151.926C139.651 152.156 139.214 152.087 138.987 151.773L137.009 149.043C136.782 148.728 136.849 148.288 137.16 148.058ZM141.268 153.729C141.579 153.499 142.015 153.568 142.242 153.882L142.9 154.79L143.919 154.335C144.271 154.178 144.683 154.34 144.839 154.696C144.994 155.052 144.835 155.468 144.482 155.625L142.95 156.308C142.65 156.441 142.299 156.346 142.105 156.079L141.116 154.714C140.889 154.4 140.957 153.959 141.268 153.729Z" fill="#1B1F21"/>
</g>
</g>
<defs>
<filter id="filter0_f_177_3441" x="94" y="112.931" width="98.2344" height="81.7653" filterUnits="userSpaceOnUse" color-interpolation-filters="sRGB">
<feFlood flood-opacity="0" result="BackgroundImageFix"/>
<feBlend mode="normal" in="SourceGraphic" in2="BackgroundImageFix" result="shape"/>
<feGaussianBlur stdDeviation="4" result="effect1_foregroundBlur_177_3441"/>
</filter>
</defs>
</svg>
