<svg width="304" height="400" viewBox="0 0 304 400" fill="none" xmlns="http://www.w3.org/2000/svg">
<mask id="mask0_253_24" style="mask-type:alpha" maskUnits="userSpaceOnUse" x="0" y="0" width="304" height="400">
<path fill-rule="evenodd" clip-rule="evenodd" d="M100 0C44.7715 0 0 44.7715 0 100V300C0 355.228 44.7715 400 100 400C119.046 400 136.849 394.675 152 385.434C167.151 394.675 184.954 400 204 400C259.228 400 304 355.228 304 300V100C304 44.7715 259.228 0 204 0C184.954 0 167.151 5.3246 152 14.5664C136.849 5.3246 119.046 0 100 0Z" fill="#1B1F21"/>
</mask>
<g mask="url(#mask0_253_24)">
<path fill-rule="evenodd" clip-rule="evenodd" d="M100 0C44.7715 0 0 44.7715 0 100V300C0 355.228 44.7715 400 100 400C119.046 400 136.849 394.675 152 385.434C167.151 394.675 184.954 400 204 400C259.228 400 304 355.228 304 300V100C304 44.7715 259.228 0 204 0C184.954 0 167.151 5.3246 152 14.5664C136.849 5.3246 119.046 0 100 0Z" fill="#1B1F21"/>
<path fill-rule="evenodd" clip-rule="evenodd" d="M293.827 -25.3543C288.134 -34.0041 282.209 -42.6278 276.117 -51.1712C274.273 -53.7577 275.075 -57.4847 277.908 -59.4957C280.741 -61.5067 284.533 -61.0402 286.377 -58.4537C292.539 -49.812 298.539 -41.0802 304.309 -32.313C306.055 -29.6593 305.125 -25.9504 302.23 -24.0288C299.336 -22.1073 295.574 -22.7007 293.827 -25.3543ZM266.468 -74.9994C263.689 -72.9144 259.876 -73.273 257.95 -75.8002C251.564 -84.1822 245.079 -92.4268 238.562 -100.479C236.563 -102.949 237.152 -106.696 239.877 -108.848C242.603 -111.001 246.434 -110.743 248.433 -108.272C255.012 -100.144 261.561 -91.8183 268.013 -83.3506C269.938 -80.8233 269.246 -77.0844 266.468 -74.9994ZM312.495 -7.70448C315.457 -9.51802 319.179 -8.77623 320.808 -6.04762C326.358 3.24924 331.578 12.5313 336.385 21.7335C337.857 24.5526 336.584 28.1912 333.541 29.8604C330.498 31.5296 326.838 30.5973 325.365 27.7781C320.661 18.7719 315.54 9.6646 310.081 0.519789C308.452 -2.2088 309.533 -5.89095 312.495 -7.70448ZM227.543 -123.669C224.868 -121.456 221.023 -121.62 218.957 -124.036C211.981 -132.19 205.05 -140.058 198.248 -147.57C196.113 -149.928 196.507 -153.684 199.128 -155.959C201.749 -158.233 205.605 -158.165 207.74 -155.807C214.607 -148.222 221.604 -140.28 228.644 -132.05C230.711 -129.634 230.218 -125.882 227.543 -123.669ZM341.885 47.2471C345.021 45.7738 348.587 46.9518 349.848 49.8782C354.277 60.1484 358.063 70.2496 361.074 80.0814C362.011 83.1422 360.138 86.5709 356.889 87.7396C353.641 88.9083 350.249 87.3745 349.311 84.3137C346.434 74.9167 342.792 65.1858 338.491 55.2133C337.229 52.2869 338.749 48.7203 341.885 47.2471ZM185.929 -170.118C183.368 -167.779 179.503 -167.742 177.297 -170.036C169.539 -178.101 162.105 -185.539 155.143 -192.233C152.846 -194.442 152.994 -198.194 155.474 -200.614C157.954 -203.034 161.827 -203.205 164.124 -200.996C171.195 -194.198 178.726 -186.661 186.57 -178.507C188.777 -176.213 188.49 -172.457 185.929 -170.118ZM141.121 -213.715C138.782 -211.168 134.907 -210.774 132.466 -212.835C128.002 -216.604 123.982 -219.784 120.476 -222.329C117.883 -224.213 117.538 -227.913 119.706 -230.594C121.874 -233.275 125.734 -233.921 128.328 -232.038C132.101 -229.298 136.332 -225.946 140.936 -222.059C143.377 -219.998 143.46 -216.263 141.121 -213.715ZM361.208 106.789C364.565 106.127 367.613 108.191 368.016 111.4C369.52 123.358 369.462 134.81 367.438 145.474C366.82 148.734 363.624 151.111 360.3 150.784C356.977 150.456 354.784 147.548 355.403 144.288C357.146 135.1 357.256 124.888 355.862 113.798C355.458 110.589 357.852 107.451 361.208 106.789ZM352.003 169.541C354.589 171.434 354.921 175.136 352.743 177.811C348.86 182.581 344.262 186.921 338.928 190.793C333.911 194.435 328.75 197.725 323.466 200.678C322.526 201.204 321.524 201.479 320.545 201.526C324.257 210.254 327.546 218.933 330.36 227.496C331.358 230.534 329.549 233.991 326.319 235.217C323.09 236.444 319.662 234.975 318.664 231.937C315.267 221.601 311.136 211.04 306.358 200.383C305.055 197.477 306.528 193.895 309.647 192.383C311.737 191.37 314.036 191.544 315.718 192.643C316.289 191.798 317.073 191.061 318.037 190.522C322.853 187.83 327.557 184.831 332.131 181.511C336.54 178.311 340.265 174.781 343.379 170.956C345.556 168.282 349.417 167.648 352.003 169.541ZM276.261 133.328C279.168 131.425 282.924 132.044 284.65 134.711C291.009 144.535 296.977 154.504 302.479 164.517C304.01 167.303 302.808 170.959 299.794 172.683C296.78 174.406 293.095 173.544 291.564 170.757C286.189 160.975 280.352 151.224 274.124 141.603C272.398 138.936 273.355 135.231 276.261 133.328ZM263.696 115.255C260.898 117.314 257.092 116.918 255.194 114.37C248.411 105.261 241.323 96.3741 233.999 87.8039C231.933 85.387 232.428 81.6345 235.104 79.4225C237.781 77.2106 241.624 77.3767 243.69 79.7936C251.169 88.5454 258.405 97.6163 265.326 106.912C267.224 109.46 266.494 113.195 263.696 115.255ZM220.238 63.1828C217.7 65.5452 213.832 65.6202 211.599 63.3502C203.475 55.0913 195.173 47.2915 186.773 40.0571C184.354 37.9732 184.307 34.2344 186.668 31.7063C189.029 29.1781 192.904 28.8179 195.323 30.9017C203.96 38.3407 212.476 46.3424 220.79 54.7949C223.023 57.0649 222.776 60.8202 220.238 63.1828ZM169.19 18.0266C167.064 20.7379 163.21 21.4449 160.581 19.6057C150.836 12.7874 141.099 6.8727 131.494 2.00775C128.606 0.545009 127.69 -3.01736 129.447 -5.949C131.204 -8.88068 134.97 -10.0714 137.858 -8.60872C147.993 -3.47503 158.174 2.718 168.278 9.78703C170.907 11.6262 171.315 15.3152 169.19 18.0266ZM331.908 256.766C335.241 255.949 338.401 257.859 338.967 261.032C341.206 273.583 342.161 285.723 341.594 297.186C341.432 300.46 338.564 303.21 335.187 303.327C331.81 303.445 329.204 300.886 329.366 297.612C329.883 287.17 329.021 275.891 326.898 263.991C326.332 260.818 328.575 257.583 331.908 256.766ZM295.339 206.986C296.067 210.115 293.982 213.439 290.681 214.411C279.219 217.785 267.448 219.909 255.531 220.931C252.151 221.22 249.397 218.81 249.381 215.546C249.366 212.283 252.093 209.402 255.474 209.113C266.6 208.159 277.501 206.183 288.042 203.08C291.343 202.108 294.61 203.857 295.339 206.986ZM108.416 -14.2309C107.288 -11.0618 103.79 -9.16632 100.603 -9.99733C88.8003 -13.0751 77.5919 -14.1055 67.1777 -12.9216C63.7991 -12.5375 60.968 -14.8637 60.8542 -18.1174C60.7403 -21.3711 63.387 -24.3202 66.7656 -24.7043C79.0343 -26.0991 91.7854 -24.8387 104.689 -21.4739C107.875 -20.6429 109.544 -17.4001 108.416 -14.2309ZM330.288 325.903C333.362 327.012 334.713 330.411 333.306 333.494C330.514 339.609 326.985 345.327 322.658 350.553C318.48 355.598 314.081 360.324 309.465 364.721C306.955 367.111 303.084 367.233 300.82 364.993C298.555 362.753 298.754 358.999 301.264 356.608C305.478 352.594 309.514 348.261 313.364 343.612C316.899 339.342 319.827 334.62 322.175 329.476C323.582 326.393 327.214 324.793 330.288 325.903ZM228.356 215.54C227.805 218.806 224.655 221.242 221.32 220.981C209.956 220.093 198.58 218.347 187.319 215.856C184.092 215.143 182.296 211.972 183.305 208.775C184.315 205.577 187.749 203.563 190.975 204.276C201.738 206.656 212.558 208.314 223.312 209.154C226.648 209.415 228.906 212.274 228.356 215.54ZM38.4826 -9.69497C40.3231 -7.10585 39.5165 -3.37943 36.6809 -1.37178C32.2433 1.77009 27.9724 5.59522 23.9067 10.1769C20.235 14.3144 17.3303 18.6191 15.1166 23.0536C13.5988 26.094 9.91966 27.5691 6.899 26.3485C3.87836 25.1278 2.66008 21.6735 4.17787 18.6331C6.92211 13.1359 10.4905 7.86941 14.9132 2.88549C19.625 -2.42427 24.6691 -6.96232 30.0158 -10.7478C32.8513 -12.7555 36.6421 -12.2841 38.4826 -9.69497ZM163.573 203.136C162.199 206.231 158.582 207.868 155.493 206.792C144.926 203.112 134.563 198.834 124.515 194.055C121.587 192.661 120.582 189.128 122.27 186.163C123.959 183.197 127.702 181.923 130.631 183.316C140.323 187.927 150.306 192.047 160.466 195.585C163.555 196.661 164.946 200.042 163.573 203.136ZM281.707 379.111C283.191 381.923 281.932 385.566 278.895 387.246C267.659 393.461 255.62 398.16 242.86 401.293C239.528 402.111 236.366 400.202 235.799 397.03C235.232 393.857 237.474 390.622 240.806 389.804C252.448 386.946 263.365 382.677 273.52 377.06C276.557 375.38 280.222 376.298 281.707 379.111ZM104.515 176.571C102.551 179.387 98.7279 180.314 95.9765 178.64C86.421 172.828 77.3016 166.582 68.7402 160.003C66.202 158.052 65.9546 154.337 68.1875 151.705C70.4204 149.072 74.2881 148.519 76.8262 150.47C85.0711 156.806 93.8652 162.83 103.089 168.441C105.841 170.114 106.479 173.754 104.515 176.571ZM3.07578 46.6774C6.45013 46.2064 9.35111 48.4529 9.55528 51.6952C10.1453 61.0657 12.7924 70.9 17.3231 80.9426C18.6329 83.846 17.1684 87.4303 14.052 88.9483C10.9355 90.4662 7.34728 89.3431 6.0374 86.4396C1.09081 75.4751 -1.97425 64.3608 -2.66437 53.4009C-2.86856 50.1587 -0.298588 47.1484 3.07578 46.6774ZM53.1018 138.671C50.6018 141.071 46.7305 141.209 44.455 138.98C36.3305 131.018 29.0324 122.753 22.7403 114.32C20.8405 111.773 21.5672 108.038 24.3634 105.976C27.1596 103.915 30.9665 104.307 32.8663 106.854C38.8011 114.808 45.7324 122.667 53.5085 130.287C55.784 132.517 55.6019 136.27 53.1018 138.671ZM212.65 399.889C212.425 403.165 209.507 405.866 206.134 405.922C194.318 406.117 182.059 405.169 169.398 403.062C166.123 402.517 164.149 399.456 164.988 396.225C165.828 392.995 169.163 390.818 172.438 391.363C184.438 393.36 195.953 394.241 206.952 394.059C210.325 394.003 212.876 396.614 212.65 399.889ZM143.051 390.904C141.777 394.031 138.206 395.775 135.074 394.799C124.215 391.413 113.103 387.248 101.758 382.29C98.7793 380.988 97.6602 377.495 99.2585 374.489C100.857 371.482 104.567 370.1 107.546 371.402C118.54 376.207 129.261 380.223 139.688 383.473C142.819 384.45 144.325 387.776 143.051 390.904ZM79.3714 364.707C77.5361 367.598 73.7468 368.691 70.9079 367.149C61.0305 361.784 50.9958 355.847 40.8152 349.331C38.1066 347.598 37.5506 343.938 39.5733 341.158C41.596 338.378 45.4316 337.53 48.1401 339.264C58.1137 345.648 67.9223 351.449 77.5543 356.681C80.3932 358.223 81.2068 361.817 79.3714 364.707ZM21.4665 328.777C19.2991 331.458 15.4391 332.106 12.8447 330.223C3.79096 323.653 -5.36693 316.639 -14.6216 309.175C-17.1105 307.168 -17.2736 303.441 -14.9859 300.852C-12.6982 298.263 -8.82608 297.791 -6.3372 299.798C2.78208 307.153 11.7948 314.055 20.6934 320.513C23.2877 322.395 23.6338 326.095 21.4665 328.777ZM-31.6538 286.786C-34.0385 289.293 -37.9141 289.617 -40.3102 287.508C-48.7065 280.119 -57.1752 272.367 -65.7111 264.248C-68.0205 262.051 -67.8914 258.3 -65.4227 255.869C-62.954 253.438 -59.0805 253.249 -56.7711 255.445C-48.331 263.474 -39.9636 271.133 -31.6743 278.428C-29.2782 280.536 -29.269 284.278 -31.6538 286.786ZM-80.9863 240.545C-83.5251 242.907 -87.3927 242.981 -89.6249 240.71C-97.4379 232.763 -105.302 224.512 -113.214 215.954C-115.373 213.618 -115.016 209.862 -112.416 207.565C-109.815 205.268 -105.956 205.3 -103.796 207.636C-95.9556 216.117 -88.1661 224.289 -80.4314 232.157C-78.1991 234.427 -78.4476 238.183 -80.9863 240.545ZM-126.954 191.394C-129.608 193.632 -133.457 193.507 -135.551 191.114C-142.911 182.707 -150.307 174.038 -157.738 165.103C-159.77 162.659 -159.228 158.909 -156.526 156.727C-153.825 154.545 -149.988 154.757 -147.955 157.201C-140.58 166.069 -133.241 174.671 -125.942 183.009C-123.848 185.402 -124.301 189.156 -126.954 191.394ZM-170.24 139.843C-172.983 141.974 -176.808 141.684 -178.784 139.195C-182.323 134.738 -185.869 130.221 -189.421 125.644C-191.369 123.134 -190.709 119.392 -187.946 117.286C-185.183 115.18 -181.365 115.508 -179.416 118.018C-175.887 122.565 -172.365 127.052 -168.851 131.479C-166.875 133.967 -167.497 137.712 -170.24 139.843Z" fill="#434343"/>
<g opacity="0.62" filter="url(#filter0_f_253_24)">
<path d="M153.477 92.5591L111 111.308L180.889 130.034L153.477 92.5591Z" fill="#FE6D44"/>
<path fill-rule="evenodd" clip-rule="evenodd" d="M175.785 125.653L174.137 125.212C173.81 125.124 173.473 125.318 173.385 125.646C173.298 125.973 173.492 126.31 173.819 126.397L175.467 126.839C175.795 126.927 176.131 126.732 176.219 126.405C176.307 126.077 176.113 125.741 175.785 125.653ZM169.193 123.887L165.897 123.004C165.569 122.916 165.233 123.11 165.145 123.438C165.057 123.765 165.252 124.102 165.579 124.19L168.875 125.073C169.203 125.16 169.539 124.966 169.627 124.639C169.715 124.311 169.521 123.975 169.193 123.887ZM160.953 121.679L157.657 120.796C157.329 120.708 156.993 120.902 156.905 121.23C156.817 121.557 157.012 121.894 157.339 121.982L160.635 122.865C160.963 122.953 161.299 122.758 161.387 122.431C161.475 122.103 161.28 121.767 160.953 121.679ZM152.713 119.471L149.417 118.588C149.089 118.5 148.753 118.694 148.665 119.022C148.577 119.349 148.771 119.686 149.099 119.774L152.395 120.657C152.722 120.745 153.059 120.55 153.147 120.223C153.235 119.895 153.04 119.559 152.713 119.471ZM144.473 117.263L141.177 116.38C140.849 116.292 140.512 116.486 140.425 116.814C140.337 117.141 140.531 117.478 140.859 117.566L144.155 118.449C144.482 118.537 144.819 118.342 144.907 118.015C144.994 117.687 144.8 117.351 144.473 117.263ZM136.232 115.055L132.936 114.172C132.609 114.084 132.272 114.278 132.185 114.606C132.097 114.933 132.291 115.27 132.619 115.358L135.915 116.241C136.242 116.329 136.579 116.134 136.667 115.807C136.754 115.479 136.56 115.143 136.232 115.055ZM127.992 112.847L124.696 111.964C124.369 111.876 124.032 112.07 123.944 112.398C123.857 112.725 124.051 113.062 124.378 113.15L127.675 114.033C128.002 114.121 128.339 113.926 128.426 113.599C128.514 113.271 128.32 112.935 127.992 112.847ZM119.752 110.639L118.104 110.198C117.777 110.11 117.44 110.304 117.352 110.632C117.264 110.959 117.459 111.296 117.786 111.383L119.434 111.825C119.762 111.913 120.098 111.718 120.186 111.391C120.274 111.063 120.08 110.727 119.752 110.639Z" fill="#1B1F21"/>
<path d="M152.312 97.6879L180.889 130.035L193.234 83.9628L152.312 97.6879Z" fill="#FE6D44"/>
<path d="M152.312 97.6879L180.889 130.035L193.234 83.9628L152.312 97.6879Z" fill="#FCFAF9" fill-opacity="0.12"/>
<path fill-rule="evenodd" clip-rule="evenodd" d="M180.021 125.322C180.243 125.272 180.418 125.102 180.477 124.883L180.984 122.991C181.072 122.664 180.877 122.327 180.55 122.239C180.222 122.151 179.886 122.346 179.798 122.673L179.592 123.442L179.099 122.87C178.878 122.612 178.491 122.583 178.234 122.804C177.977 123.025 177.947 123.413 178.168 123.67L179.419 125.124C179.567 125.297 179.799 125.373 180.021 125.322ZM181.246 119.642C181.573 119.73 181.91 119.536 181.998 119.208L183.011 115.425C183.099 115.098 182.905 114.761 182.577 114.673C182.25 114.585 181.913 114.78 181.825 115.107L180.812 118.89C180.724 119.218 180.918 119.554 181.246 119.642ZM183.273 112.076C183.601 112.164 183.937 111.97 184.025 111.642L185.039 107.859C185.126 107.532 184.932 107.195 184.605 107.107C184.277 107.019 183.94 107.214 183.853 107.541L182.839 111.324C182.751 111.652 182.946 111.988 183.273 112.076ZM185.3 104.51C185.628 104.598 185.965 104.403 186.052 104.076L187.066 100.293C187.154 99.9655 186.959 99.6289 186.632 99.5411C186.304 99.4534 185.968 99.6477 185.88 99.9752L184.866 103.758C184.779 104.086 184.973 104.422 185.3 104.51ZM187.328 96.9441C187.655 97.0318 187.992 96.8375 188.08 96.51L188.586 94.6185C188.674 94.291 188.48 93.9543 188.152 93.8666C187.825 93.7788 187.488 93.9732 187.401 94.3007L186.894 96.1922C186.806 96.5197 187 96.8563 187.328 96.9441ZM176.533 120.828C176.79 120.606 176.82 120.219 176.599 119.962L174.098 117.054C173.877 116.797 173.489 116.768 173.232 116.989C172.975 117.21 172.946 117.598 173.167 117.855L175.668 120.762C175.889 121.019 176.276 121.049 176.533 120.828ZM171.532 115.012C171.789 114.791 171.818 114.403 171.597 114.146L169.096 111.239C168.875 110.981 168.488 110.952 168.231 111.173C167.974 111.394 167.944 111.782 168.165 112.039L170.666 114.947C170.887 115.204 171.275 115.233 171.532 115.012ZM166.53 109.197C166.787 108.975 166.817 108.588 166.596 108.331L164.095 105.423C163.874 105.166 163.486 105.137 163.229 105.358C162.972 105.579 162.943 105.967 163.164 106.224L165.665 109.131C165.886 109.388 166.273 109.418 166.53 109.197ZM161.529 103.381C161.786 103.16 161.815 102.772 161.594 102.515L160.344 101.061C160.123 100.804 159.735 100.775 159.478 100.996C159.221 101.217 159.192 101.605 159.413 101.862L160.663 103.316C160.884 103.573 161.272 103.602 161.529 103.381Z" fill="black"/>
<path d="M151.922 97.5825L111 111.308L123.345 65.2353L151.922 97.5825Z" fill="#FE6D44"/>
<path d="M151.922 97.5825L111 111.308L123.345 65.2353L151.922 97.5825Z" fill="#FCFAF9" fill-opacity="0.12"/>
<path fill-rule="evenodd" clip-rule="evenodd" d="M124.521 69.9018C124.849 69.9891 125.044 70.3254 124.956 70.653L124.469 72.4837C124.381 72.8113 124.045 73.0061 123.717 72.9188C123.39 72.8315 123.195 72.4952 123.282 72.1676L123.77 70.337C123.857 70.0093 124.193 69.8145 124.521 69.9018ZM123.058 75.3936C123.386 75.4809 123.58 75.8173 123.493 76.1449L122.518 79.8061C122.43 80.1337 122.094 80.3286 121.766 80.2413C121.439 80.154 121.244 79.8177 121.331 79.49L122.307 75.8288C122.394 75.5012 122.73 75.3064 123.058 75.3936ZM121.107 82.7161C121.435 82.8034 121.63 83.1397 121.542 83.4673L120.567 87.1286C120.48 87.4562 120.143 87.651 119.816 87.5637C119.488 87.4764 119.293 87.1401 119.38 86.8125L120.356 83.1513C120.443 82.8236 120.779 82.6288 121.107 82.7161ZM119.156 90.0385C119.484 90.1258 119.679 90.4622 119.591 90.7898L118.616 94.451C118.529 94.7786 118.192 94.9735 117.865 94.8862C117.537 94.7989 117.342 94.4626 117.43 94.1349L118.405 90.4737C118.492 90.1461 118.829 89.9513 119.156 90.0385ZM117.205 97.361C117.533 97.4483 117.728 97.7846 117.641 98.1122L116.665 101.773C116.578 102.101 116.242 102.296 115.914 102.209C115.586 102.121 115.391 101.785 115.479 101.457L116.454 97.7962C116.541 97.4685 116.878 97.2737 117.205 97.361ZM115.255 104.683C115.582 104.771 115.777 105.107 115.69 105.435L115.501 106.144L116.216 105.894C116.536 105.782 116.886 105.95 116.998 106.27C117.11 106.59 116.942 106.941 116.622 107.053L114.812 107.687C114.597 107.762 114.359 107.712 114.192 107.558C114.025 107.403 113.957 107.169 114.016 106.949L114.503 105.119C114.591 104.791 114.927 104.596 115.255 104.683ZM119.459 105.408C119.347 105.088 119.515 104.738 119.835 104.626L123.455 103.358C123.775 103.246 124.125 103.415 124.237 103.735C124.349 104.055 124.181 104.405 123.861 104.517L120.241 105.785C119.921 105.897 119.571 105.728 119.459 105.408ZM126.698 102.873C126.586 102.553 126.755 102.203 127.074 102.091L130.694 100.823C131.014 100.711 131.364 100.879 131.476 101.199C131.588 101.519 131.42 101.869 131.1 101.982L127.48 103.249C127.16 103.361 126.81 103.193 126.698 102.873ZM133.937 100.337C133.825 100.017 133.994 99.667 134.314 99.5549L137.933 98.2871C138.253 98.175 138.604 98.3436 138.716 98.6636C138.828 98.9836 138.659 99.3338 138.339 99.4459L134.72 100.714C134.4 100.826 134.049 100.657 133.937 100.337ZM141.176 97.8016C141.064 97.4816 141.233 97.1314 141.553 97.0193L143.363 96.3854C143.683 96.2733 144.033 96.4419 144.145 96.7618C144.257 97.0818 144.089 97.4321 143.769 97.5442L141.959 98.1781C141.639 98.2902 141.288 98.1216 141.176 97.8016Z" fill="black"/>
<path d="M150.756 102.712L123.344 65.2363L193.233 83.9631L150.756 102.712Z" fill="#FE6D44"/>
<path d="M150.756 102.712L123.344 65.2363L193.233 83.9631L150.756 102.712Z" fill="#FCFAF9" fill-opacity="0.25"/>
<path fill-rule="evenodd" clip-rule="evenodd" d="M190.494 82.1729C190.649 82.5254 190.49 82.9372 190.137 83.0928L188.605 83.7691C188.252 83.9246 187.841 83.765 187.685 83.4125C187.529 83.0601 187.689 82.6482 188.042 82.4926L189.574 81.8164C189.926 81.6608 190.338 81.8204 190.494 82.1729ZM126.613 65.056C126.924 64.8286 127.36 64.8963 127.588 65.2072L128.576 66.559C128.804 66.87 128.736 67.3065 128.425 67.5339C128.114 67.7614 127.678 67.6937 127.45 67.3827L126.461 66.0309C126.234 65.72 126.302 65.2835 126.613 65.056ZM185.661 84.3058C185.817 84.6582 185.657 85.0701 185.305 85.2257L182.24 86.5782C181.888 86.7338 181.476 86.5742 181.321 86.2217C181.165 85.8692 181.325 85.4574 181.677 85.3018L184.741 83.9492C185.094 83.7937 185.506 83.9533 185.661 84.3058ZM129.731 69.3193C130.042 69.0919 130.479 69.1596 130.706 69.4705L132.684 72.1741C132.911 72.4851 132.843 72.9215 132.532 73.149C132.222 73.3765 131.785 73.3088 131.558 72.9978L129.58 70.2943C129.353 69.9833 129.42 69.5468 129.731 69.3193ZM179.297 87.1149C179.452 87.4674 179.293 87.8793 178.94 88.0348L175.876 89.3874C175.523 89.543 175.112 89.3834 174.956 89.0309C174.8 88.6784 174.96 88.2666 175.312 88.111L178.377 86.7584C178.729 86.6028 179.141 86.7625 179.297 87.1149ZM133.838 74.9344C134.149 74.707 134.586 74.7746 134.813 75.0856L136.791 77.7892C137.018 78.1001 136.951 78.5366 136.64 78.7641C136.329 78.9916 135.892 78.9239 135.665 78.6129L133.687 75.9093C133.46 75.5984 133.527 75.1619 133.838 74.9344ZM172.932 89.9241C173.088 90.2766 172.928 90.6884 172.576 90.844L169.511 92.1966C169.159 92.3522 168.747 92.1925 168.591 91.8401C168.436 91.4876 168.595 91.0757 168.948 90.9202L172.012 89.5676C172.365 89.412 172.777 89.5716 172.932 89.9241ZM137.946 80.5495C138.257 80.322 138.693 80.3897 138.921 80.7007L140.898 83.4043C141.126 83.7152 141.058 84.1517 140.747 84.3792C140.436 84.6066 140 84.539 139.772 84.228L137.795 81.5244C137.567 81.2135 137.635 80.777 137.946 80.5495ZM166.568 92.7333C166.723 93.0858 166.564 93.4976 166.211 93.6532L163.147 95.0058C162.794 95.1613 162.382 95.0017 162.227 94.6492C162.071 94.2968 162.231 93.8849 162.583 93.7293L165.648 92.3768C166 92.2212 166.412 92.3808 166.568 92.7333ZM142.053 86.1646C142.364 85.9371 142.8 86.0048 143.028 86.3158L145.005 89.0193C145.233 89.3303 145.165 89.7668 144.854 89.9943C144.543 90.2217 144.107 90.154 143.879 89.8431L141.902 87.1395C141.674 86.8285 141.742 86.3921 142.053 86.1646ZM160.203 95.5424C160.359 95.8949 160.199 96.3068 159.847 96.4624L156.782 97.8149C156.43 97.9705 156.018 97.8109 155.862 97.4584C155.707 97.1059 155.866 96.6941 156.219 96.5385L159.283 95.1859C159.636 95.0304 160.048 95.19 160.203 95.5424ZM146.16 91.7797C146.471 91.5522 146.908 91.6199 147.135 91.9309L149.113 94.6344C149.34 94.9454 149.273 95.3819 148.962 95.6093C148.651 95.8368 148.214 95.7691 147.987 95.4582L146.009 92.7546C145.782 92.4436 145.849 92.0071 146.16 91.7797ZM150.268 97.3948C150.579 97.1673 151.015 97.235 151.242 97.546L151.9 98.4448L152.919 97.9951C153.271 97.8395 153.683 97.9991 153.839 98.3516C153.994 98.7041 153.835 99.116 153.482 99.2715L151.95 99.9478C151.65 100.08 151.299 99.986 151.105 99.7215L150.116 98.3697C149.889 98.0587 149.957 97.6222 150.268 97.3948Z" fill="#1B1F21"/>
</g>
</g>
<defs>
<filter id="filter0_f_253_24" x="103" y="56.9219" width="98.2344" height="81.1133" filterUnits="userSpaceOnUse" color-interpolation-filters="sRGB">
<feFlood flood-opacity="0" result="BackgroundImageFix"/>
<feBlend mode="normal" in="SourceGraphic" in2="BackgroundImageFix" result="shape"/>
<feGaussianBlur stdDeviation="4" result="effect1_foregroundBlur_253_24"/>
</filter>
</defs>
</svg>
