<svg width="3840" height="1062" viewBox="0 0 3840 1062" fill="none" xmlns="http://www.w3.org/2000/svg">
<mask id="mask0_316_3869" style="mask-type:alpha" maskUnits="userSpaceOnUse" x="-241" y="0" width="4236" height="1062">
<path d="M-241 309.573L3995 0L3733.97 1062L16.6049 880.929L-241 309.573Z" fill="#1B1F21"/>
</mask>
<g mask="url(#mask0_316_3869)">
<path d="M2036.77 1416.78C2207.08 1283.24 2805.57 555.224 2523.67 366.468C2161.94 124.259 1535.22 617.43 1751.76 843.333C2038.46 1142.42 2699.62 229.619 2464.21 -33.3853C2228.8 -296.39 1752.26 -151.509 1231.49 574.278" stroke="#434343" stroke-width="24" stroke-linecap="round"/>
<path d="M3675.41 -371.206C3491.99 -256.331 2820.19 404.641 3080.66 622.023C3414.89 900.962 4090.03 476.499 3898.47 229.058C3644.85 -98.5495 2891.28 739.589 3097.7 1025.91C3304.12 1312.24 3793.26 1218.32 4387.53 551.383" stroke="#434343" stroke-width="24" stroke-linecap="round"/>
<path d="M301.349 1848.31C484.005 1732.22 1151.38 1066.79 889.476 851.146C553.4 574.437 -118.903 1003.38 74.2975 1249.55C330.09 1575.46 1078.07 732.321 869.749 447.378C661.427 162.435 172.924 259.604 -416.896 930.483" stroke="#434343" stroke-width="24" stroke-linecap="round"/>
</g>
</svg>
